<?xml version="1.0" encoding="UTF-8"?>
<svg xmlns="http://www.w3.org/2000/svg" xmlns:xlink="http://www.w3.org/1999/xlink" width="671px" height="671.94px" viewBox="0 0 671 671.94" version="1.1">
  <metadata xmlns:gridsvg="http://www.stat.auckland.ac.nz/~paul/R/gridSVG/">
    <gridsvg:generator name="gridSVG" version="1.5-1" time="2016-12-13 09:35:39"/>
    <gridsvg:argument name="name" value="RForwardsLogo-gridSVG-2.svg"/>
    <gridsvg:argument name="exportCoords" value="none"/>
    <gridsvg:argument name="exportMappings" value="none"/>
    <gridsvg:argument name="exportJS" value="none"/>
    <gridsvg:argument name="res" value="96"/>
    <gridsvg:argument name="prefix" value=""/>
    <gridsvg:argument name="addClasses" value="FALSE"/>
    <gridsvg:argument name="indent" value="TRUE"/>
    <gridsvg:argument name="htmlWrapper" value="FALSE"/>
    <gridsvg:argument name="usePaths" value="vpPaths"/>
    <gridsvg:argument name="uniqueNames" value="TRUE"/>
    <gridsvg:separator name="id.sep" value="."/>
    <gridsvg:separator name="gPath.sep" value="::"/>
    <gridsvg:separator name="vpPath.sep" value="::"/>
  </metadata>
  <g transform="translate(0, 671.94) scale(1, -1)">
    <g id="gridSVG" fill="none" stroke="rgb(0,0,0)" stroke-dasharray="none" stroke-width="1" font-size="16" font-family="Helvetica, Arial, FreeSans, Liberation Sans, Nimbus Sans L, sans-serif" opacity="1" stroke-linecap="round" stroke-linejoin="round" stroke-miterlimit="10" stroke-opacity="1" fill-opacity="0" font-weight="normal" font-style="normal">
      <defs>
        <linearGradient id="import.5.linear0.1" x1="0.84" x2="669.15" y1="668.8" y2="221.21" gradientUnits="userSpaceOnUse" spreadMethod="pad">
          <stop offset="0" stop-color="rgb(203,206,208)" stop-opacity="1"/>
          <stop offset="1" stop-color="rgb(132,131,139)" stop-opacity="1"/>
        </linearGradient>
        <linearGradient id="import.5.linear1.1" x1="276.19" x2="645.05" y1="529.83" y2="153.44" gradientUnits="userSpaceOnUse" spreadMethod="pad">
          <stop offset="0" stop-color="rgb(39,109,195)" stop-opacity="1"/>
          <stop offset="1" stop-color="rgb(22,92,170)" stop-opacity="1"/>
        </linearGradient>
        <linearGradient id="gridSVG.gradientFill.1.1" x1="0.5" x2="0.5" y1="0" y2="1" gradientUnits="objectBoundingBox" spreadMethod="pad">
          <stop offset="0" stop-color="rgb(0,0,4)" stop-opacity="1"/>
          <stop offset="0.11" stop-color="rgb(24,15,62)" stop-opacity="1"/>
          <stop offset="0.22" stop-color="rgb(69,16,119)" stop-opacity="1"/>
          <stop offset="0.33" stop-color="rgb(114,31,129)" stop-opacity="1"/>
          <stop offset="0.44" stop-color="rgb(159,47,127)" stop-opacity="1"/>
          <stop offset="0.56" stop-color="rgb(205,64,113)" stop-opacity="1"/>
          <stop offset="0.67" stop-color="rgb(241,96,93)" stop-opacity="1"/>
          <stop offset="0.78" stop-color="rgb(253,149,103)" stop-opacity="1"/>
          <stop offset="0.89" stop-color="rgb(254,201,141)" stop-opacity="1"/>
          <stop offset="1" stop-color="rgb(252,253,191)" stop-opacity="1"/>
        </linearGradient>
        <linearGradient id="greyscale.1" x1="0" x2="671" y1="671.94" y2="0" gradientUnits="userSpaceOnUse" spreadMethod="pad">
          <stop offset="0" stop-color="rgb(203,206,208)" stop-opacity="1"/>
          <stop offset="1" stop-color="rgb(132,131,139)" stop-opacity="1"/>
        </linearGradient>
      </defs>
      <g id="picture.shape.1">
        <defs>
          <clipPath id="picture.shape::picture.scale.1.clipPath">
            <rect x="0" y="151.64" width="671" height="519.93" fill="none" stroke="none"/>
          </clipPath>
        </defs>
        <g id="picture.shape::picture.scale.1" clip-path="url(#picture.shape::picture.scale.1.clipPath)">
          <g id="import.5.GRID.gTree.128.1">
            <g id="GRID.gTree.127.1">
              <g id="GRID.picComplexPath.121.1" stroke="rgb(255,255,255)" stroke-opacity="0" fill="url(#import.5.linear0.1)" fill-opacity="1">
                <g id="GRID.picPath.122.1">
                  <path id="GRID.picPath.122.1.1" d="M 334.99 221.21 L 334.99 221.21 L 323.64 221.35 L 312.36 221.75 L 301.14 222.42 L 289.98 223.37 L 278.86 224.59 L 267.79 226.08 L 256.76 227.85 L 245.78 229.9 L 234.85 232.22 L 223.97 234.83 L 213.17 237.71 L 202.45 240.88 L 191.82 244.32 L 181.31 248.03 L 170.92 252.02 L 160.68 256.27 L 150.61 260.78 L 140.73 265.54 L 131.06 270.54 L 121.62 275.78 L 112.42 281.25 L 103.5 286.92 L 94.86 292.8 L 86.54 298.87 L 78.54 305.11 L 70.88 311.51 L 63.58 318.05 L 56.65 324.73 L 50.1 331.53 L 43.94 338.44 L 38.18 345.43 L 32.83 352.51 L 27.89 359.66 L 23.37 366.87 L 19.26 374.13 L 15.57 381.43 L 12.3 388.77 L 9.44 396.14 L 6.99 403.54 L 4.96 410.97 L 3.34 418.43 L 2.12 425.92 L 1.31 433.45 L 0.89 441.03 L 0.84 445 L 0.84 445 L 1.04 452.61 L 1.64 460.16 L 2.65 467.67 L 4.06 475.15 L 5.88 482.59 L 8.11 490.01 L 10.75 497.4 L 13.81 504.75 L 17.28 512.08 L 21.17 519.36 L 25.48 526.59 L 30.2 533.77 L 35.34 540.89 L 40.89 547.93 L 46.84 554.89 L 53.18 561.74 L 59.92 568.49 L 67.03 575.1 L 74.5 581.58 L 82.32 587.91 L 90.48 594.07 L 98.96 600.04 L 107.73 605.82 L 116.79 611.4 L 126.11 616.76 L 135.66 621.89 L 145.44 626.78 L 155.41 631.42 L 165.56 635.81 L 175.87 639.93 L 186.32 643.79 L 196.89 647.37 L 207.57 650.68 L 218.33 653.71 L 229.17 656.46 L 240.07 658.93 L 251.03 661.12 L 262.03 663.04 L 273.09 664.67 L 284.18 666.04 L 295.32 667.12 L 306.5 667.94 L 317.75 668.48 L 329.06 668.76 L 334.99 668.8 L 334.99 668.8 L 346.35 668.66 L 357.63 668.26 L 368.84 667.58 L 380.01 666.64 L 391.12 665.42 L 402.19 663.93 L 413.22 662.16 L 424.21 660.11 L 435.14 657.78 L 446.01 655.18 L 456.82 652.29 L 467.54 649.13 L 478.17 645.69 L 488.68 641.97 L 499.07 637.99 L 509.3 633.74 L 519.37 629.23 L 529.25 624.47 L 538.93 619.46 L 548.37 614.22 L 557.56 608.76 L 566.49 603.08 L 575.12 597.21 L 583.45 591.14 L 591.45 584.9 L 599.11 578.5 L 606.41 571.95 L 613.34 565.27 L 619.89 558.47 L 626.05 551.57 L 631.8 544.57 L 637.16 537.49 L 642.09 530.34 L 646.62 523.14 L 650.73 515.88 L 654.42 508.58 L 657.69 501.24 L 660.55 493.87 L 662.99 486.46 L 665.03 479.04 L 666.65 471.58 L 667.87 464.08 L 668.68 456.55 L 669.09 448.98 L 669.15 445 L 669.15 445 L 668.95 437.4 L 668.34 429.84 L 667.33 422.33 L 665.92 414.86 L 664.1 407.41 L 661.87 400 L 659.23 392.61 L 656.18 385.25 L 652.7 377.93 L 648.81 370.65 L 644.51 363.41 L 639.78 356.23 L 634.65 349.12 L 629.1 342.07 L 623.15 335.12 L 616.8 328.26 L 610.07 321.52 L 602.96 314.9 L 595.49 308.42 L 587.66 302.1 L 579.5 295.94 L 571.03 289.96 L 562.25 284.18 L 553.2 278.61 L 543.88 273.25 L 534.32 268.12 L 524.55 263.23 L 514.57 258.59 L 504.42 254.2 L 494.11 250.08 L 483.66 246.22 L 473.09 242.64 L 462.42 239.33 L 451.66 236.3 L 440.82 233.55 L 429.92 231.08 L 418.96 228.88 L 407.95 226.97 L 396.9 225.33 L 385.81 223.97 L 374.67 222.88 L 363.48 222.07 L 352.24 221.52 L 340.92 221.25 L 334.99 221.21 Z M 386.14 581.3 L 386.14 581.3 L 376.17 581.18 L 366.27 580.81 L 356.43 580.19 L 346.65 579.33 L 336.91 578.21 L 327.21 576.84 L 317.56 575.22 L 307.96 573.35 L 298.42 571.22 L 288.96 568.83 L 279.6 566.19 L 270.34 563.3 L 261.2 560.16 L 252.22 556.78 L 243.42 553.16 L 234.81 549.32 L 226.42 545.25 L 218.28 540.98 L 210.41 536.51 L 202.84 531.86 L 195.58 527.04 L 188.65 522.06 L 182.08 516.94 L 175.88 511.7 L 170.07 506.34 L 164.65 500.88 L 159.64 495.34 L 155.04 489.73 L 150.87 484.06 L 147.11 478.34 L 143.78 472.58 L 140.87 466.78 L 138.39 460.95 L 136.33 455.1 L 134.68 449.21 L 133.44 443.31 L 132.62 437.36 L 132.21 431.38 L 132.16 428.31 L 132.16 428.31 L 132.36 422.3 L 132.97 416.34 L 134 410.41 L 135.43 404.52 L 137.28 398.65 L 139.55 392.81 L 142.24 387 L 145.36 381.21 L 148.9 375.47 L 152.86 369.77 L 157.24 364.13 L 162.04 358.55 L 167.25 353.05 L 172.87 347.64 L 178.87 342.34 L 185.25 337.15 L 192 332.1 L 199.09 327.2 L 206.51 322.45 L 214.23 317.89 L 222.24 313.52 L 230.5 309.35 L 239 305.39 L 247.7 301.65 L 256.6 298.15 L 265.66 294.89 L 274.85 291.87 L 284.17 289.1 L 293.58 286.58 L 303.08 284.32 L 312.65 282.32 L 322.28 280.57 L 331.95 279.07 L 341.67 277.82 L 351.43 276.83 L 361.24 276.09 L 371.11 275.59 L 381.04 275.34 L 386.14 275.31 L 386.14 275.31 L 395.98 275.4 L 405.71 275.65 L 415.34 276.08 L 424.9 276.68 L 434.38 277.48 L 443.78 278.47 L 453.12 279.66 L 462.37 281.07 L 471.54 282.68 L 480.62 284.52 L 489.58 286.58 L 498.42 288.86 L 507.12 291.39 L 515.66 294.14 L 524.01 297.14 L 532.17 300.37 L 540.1 303.83 L 547.79 307.53 L 555.22 311.45 L 562.37 315.6 L 569.21 319.97 L 575.74 324.55 L 581.93 329.33 L 587.77 334.31 L 593.25 339.47 L 598.36 344.82 L 603.1 350.34 L 607.45 356.02 L 611.41 361.87 L 614.98 367.86 L 618.17 374 L 620.96 380.29 L 623.37 386.72 L 625.4 393.29 L 627.05 400.01 L 628.32 406.88 L 629.22 413.91 L 629.76 421.12 L 629.93 428.31 L 629.93 428.31 L 629.75 435.69 L 629.2 442.89 L 628.29 449.92 L 627 456.79 L 625.35 463.5 L 623.31 470.07 L 620.89 476.49 L 618.08 482.77 L 614.89 488.91 L 611.3 494.9 L 607.33 500.74 L 602.97 506.42 L 598.22 511.93 L 593.1 517.27 L 587.61 522.43 L 581.76 527.41 L 575.56 532.18 L 569.02 536.76 L 562.17 541.12 L 555.02 545.26 L 547.58 549.18 L 539.88 552.87 L 531.94 556.33 L 523.78 559.55 L 515.42 562.54 L 506.88 565.29 L 498.17 567.81 L 489.33 570.09 L 480.36 572.15 L 471.29 573.98 L 462.12 575.59 L 452.86 576.98 L 443.52 578.17 L 434.11 579.16 L 424.63 579.95 L 415.07 580.55 L 405.44 580.97 L 395.7 581.22 L 386.14 581.3 Z" fill-rule="evenodd" stroke="rgb(255,255,255)" stroke-opacity="0"/>
                </g>
                <g id="GRID.picPolyline.123.1">
                  <polyline id="GRID.picPolyline.123.1.1" points="334.99,221.21 334.99,221.21 323.64,221.35 312.36,221.75 301.14,222.42 289.98,223.37 278.86,224.59 267.79,226.08 256.76,227.85 245.78,229.9 234.85,232.22 223.97,234.83 213.17,237.71 202.45,240.88 191.82,244.32 181.31,248.03 170.92,252.02 160.68,256.27 150.61,260.78 140.73,265.54 131.06,270.54 121.62,275.78 112.42,281.25 103.5,286.92 94.86,292.8 86.54,298.87 78.54,305.11 70.88,311.51 63.58,318.05 56.65,324.73 50.1,331.53 43.94,338.44 38.18,345.43 32.83,352.51 27.89,359.66 23.37,366.87 19.26,374.13 15.57,381.43 12.3,388.77 9.44,396.14 6.99,403.54 4.96,410.97 3.34,418.43 2.12,425.92 1.31,433.45 0.89,441.03 0.84,445 0.84,445 1.04,452.61 1.64,460.16 2.65,467.67 4.06,475.15 5.88,482.59 8.11,490.01 10.75,497.4 13.81,504.75 17.28,512.08 21.17,519.36 25.48,526.59 30.2,533.77 35.34,540.89 40.89,547.93 46.84,554.89 53.18,561.74 59.92,568.49 67.03,575.1 74.5,581.58 82.32,587.91 90.48,594.07 98.96,600.04 107.73,605.82 116.79,611.4 126.11,616.76 135.66,621.89 145.44,626.78 155.41,631.42 165.56,635.81 175.87,639.93 186.32,643.79 196.89,647.37 207.57,650.68 218.33,653.71 229.17,656.46 240.07,658.93 251.03,661.12 262.03,663.04 273.09,664.67 284.18,666.04 295.32,667.12 306.5,667.94 317.75,668.48 329.06,668.76 334.99,668.8 334.99,668.8 346.35,668.66 357.63,668.26 368.84,667.58 380.01,666.64 391.12,665.42 402.19,663.93 413.22,662.16 424.21,660.11 435.14,657.78 446.01,655.18 456.82,652.29 467.54,649.13 478.17,645.69 488.68,641.97 499.07,637.99 509.3,633.74 519.37,629.23 529.25,624.47 538.93,619.46 548.37,614.22 557.56,608.76 566.49,603.08 575.12,597.21 583.45,591.14 591.45,584.9 599.11,578.5 606.41,571.95 613.34,565.27 619.89,558.47 626.05,551.57 631.8,544.57 637.16,537.49 642.09,530.34 646.62,523.14 650.73,515.88 654.42,508.58 657.69,501.24 660.55,493.87 662.99,486.46 665.03,479.04 666.65,471.58 667.87,464.08 668.68,456.55 669.09,448.98 669.15,445 669.15,445 668.95,437.4 668.34,429.84 667.33,422.33 665.92,414.86 664.1,407.41 661.87,400 659.23,392.61 656.18,385.25 652.7,377.93 648.81,370.65 644.51,363.41 639.78,356.23 634.65,349.12 629.1,342.07 623.15,335.12 616.8,328.26 610.07,321.52 602.96,314.9 595.49,308.42 587.66,302.1 579.5,295.94 571.03,289.96 562.25,284.18 553.2,278.61 543.88,273.25 534.32,268.12 524.55,263.23 514.57,258.59 504.42,254.2 494.11,250.08 483.66,246.22 473.09,242.64 462.42,239.33 451.66,236.3 440.82,233.55 429.92,231.08 418.96,228.88 407.95,226.97 396.9,225.33 385.81,223.97 374.67,222.88 363.48,222.07 352.24,221.52 340.92,221.25 334.99,221.21 334.99,221.21" fill="none" fill-opacity="0"/>
                  <polyline id="GRID.picPolyline.123.1.2" points="386.14,581.3 386.14,581.3 376.17,581.18 366.27,580.81 356.43,580.19 346.65,579.33 336.91,578.21 327.21,576.84 317.56,575.22 307.96,573.35 298.42,571.22 288.96,568.83 279.6,566.19 270.34,563.3 261.2,560.16 252.22,556.78 243.42,553.16 234.81,549.32 226.42,545.25 218.28,540.98 210.41,536.51 202.84,531.86 195.58,527.04 188.65,522.06 182.08,516.94 175.88,511.7 170.07,506.34 164.65,500.88 159.64,495.34 155.04,489.73 150.87,484.06 147.11,478.34 143.78,472.58 140.87,466.78 138.39,460.95 136.33,455.1 134.68,449.21 133.44,443.31 132.62,437.36 132.21,431.38 132.16,428.31 132.16,428.31 132.36,422.3 132.97,416.34 134,410.41 135.43,404.52 137.28,398.65 139.55,392.81 142.24,387 145.36,381.21 148.9,375.47 152.86,369.77 157.24,364.13 162.04,358.55 167.25,353.05 172.87,347.64 178.87,342.34 185.25,337.15 192,332.1 199.09,327.2 206.51,322.45 214.23,317.89 222.24,313.52 230.5,309.35 239,305.39 247.7,301.65 256.6,298.15 265.66,294.89 274.85,291.87 284.17,289.1 293.58,286.58 303.08,284.32 312.65,282.32 322.28,280.57 331.95,279.07 341.67,277.82 351.43,276.83 361.24,276.09 371.11,275.59 381.04,275.34 386.14,275.31 386.14,275.31 395.98,275.4 405.71,275.65 415.34,276.08 424.9,276.68 434.38,277.48 443.78,278.47 453.12,279.66 462.37,281.07 471.54,282.68 480.62,284.52 489.58,286.58 498.42,288.86 507.12,291.39 515.66,294.14 524.01,297.14 532.17,300.37 540.1,303.83 547.79,307.53 555.22,311.45 562.37,315.6 569.21,319.97 575.74,324.55 581.93,329.33 587.77,334.31 593.25,339.47 598.36,344.82 603.1,350.34 607.45,356.02 611.41,361.87 614.98,367.86 618.17,374 620.96,380.29 623.37,386.72 625.4,393.29 627.05,400.01 628.32,406.88 629.22,413.91 629.76,421.12 629.93,428.31 629.93,428.31 629.75,435.69 629.2,442.89 628.29,449.92 627,456.79 625.35,463.5 623.31,470.07 620.89,476.49 618.08,482.77 614.89,488.91 611.3,494.9 607.33,500.74 602.97,506.42 598.22,511.93 593.1,517.27 587.61,522.43 581.76,527.41 575.56,532.18 569.02,536.76 562.17,541.12 555.02,545.26 547.58,549.18 539.88,552.87 531.94,556.33 523.78,559.55 515.42,562.54 506.88,565.29 498.17,567.81 489.33,570.09 480.36,572.15 471.29,573.98 462.12,575.59 452.86,576.98 443.52,578.17 434.11,579.16 424.63,579.95 415.07,580.55 405.44,580.97 395.7,581.22 386.14,581.3 386.14,581.3" fill="none" fill-opacity="0"/>
                </g>
              </g>
              <g id="GRID.picComplexPath.124.1" stroke="rgb(255,255,255)" stroke-opacity="0" fill="url(#gridSVG.gradientFill.1.1)" fill-opacity="1">
                <g id="GRID.picPath.125.1">
                  <path id="GRID.picPath.125.1.1" d="M 509.74 322.17 L 509.74 322.17 L 510.08 322.07 L 511.09 321.75 L 512.73 321.23 L 514.96 320.51 L 517.69 319.6 L 520.82 318.53 L 524.23 317.32 L 527.75 316.03 L 531.27 314.69 L 534.64 313.33 L 537.79 311.98 L 540.66 310.65 L 541.71 310.13 L 541.71 310.13 L 542.99 309.46 L 544.48 308.64 L 546.17 307.65 L 548.03 306.49 L 549.98 305.18 L 551.95 303.77 L 553.85 302.29 L 555.62 300.79 L 557.23 299.27 L 557.93 298.54 L 557.93 298.54 L 559.63 296.62 L 561.15 294.67 L 562.5 292.76 L 563.62 291 L 564.47 289.56 L 565.02 288.53 L 565.3 287.98 L 565.35 287.88 L 645.05 153.5 L 516.23 153.44 L 455.98 266.57 L 455.98 266.57 L 455.77 266.93 L 455.15 267.97 L 454.13 269.64 L 452.75 271.86 L 451.06 274.52 L 449.11 277.5 L 446.99 280.63 L 444.78 283.75 L 442.58 286.71 L 440.46 289.37 L 438.46 291.63 L 436.63 293.42 L 436.06 293.91 L 436.06 293.91 L 434.16 295.43 L 432.38 296.77 L 430.67 297.95 L 428.97 298.94 L 427.28 299.72 L 425.58 300.29 L 423.87 300.65 L 422.08 300.83 L 420.77 300.86 L 420.77 300.86 L 419.33 300.86 L 417.14 300.86 L 414.28 300.86 L 410.91 300.86 L 407.19 300.86 L 403.37 300.86 L 399.68 300.86 L 396.36 300.86 L 393.61 300.86 L 391.59 300.86 L 390.42 300.86 L 390.16 300.86 L 390.18 153.52 L 276.19 153.47 L 276.19 529.83 L 505.1 529.83 L 505.1 529.83 L 505.46 529.82 L 506.52 529.77 L 508.24 529.65 L 510.58 529.42 L 513.52 529.06 L 517.01 528.53 L 521.01 527.8 L 525.47 526.84 L 530.35 525.61 L 535.57 524.08 L 541.07 522.23 L 546.79 520.02 L 552.65 517.43 L 558.56 514.44 L 564.46 511.03 L 570.27 507.2 L 575.9 502.92 L 581.29 498.19 L 586.36 493.01 L 591.06 487.37 L 595.32 481.26 L 599.1 474.68 L 602.34 467.61 L 605.02 460.05 L 607.09 451.97 L 608.51 443.33 L 609.26 434.11 L 609.37 428.76 L 609.37 428.76 L 609.03 419.19 L 608.02 410.2 L 606.39 401.74 L 604.16 393.78 L 601.36 386.3 L 598.04 379.28 L 594.23 372.71 L 589.98 366.58 L 585.34 360.89 L 580.37 355.64 L 575.12 350.83 L 569.68 346.44 L 564.1 342.49 L 558.45 338.96 L 552.83 335.84 L 547.29 333.11 L 541.91 330.75 L 536.77 328.76 L 531.92 327.09 L 527.42 325.73 L 523.34 324.64 L 519.71 323.79 L 516.59 323.17 L 514.01 322.72 L 512.01 322.43 L 510.62 322.26 L 509.87 322.18 L 509.74 322.17 Z M 460.15 448.2 L 391.14 448.24 L 391.11 384.24 L 460.15 384.27 L 460.15 384.27 L 460.46 384.27 L 461.36 384.33 L 462.8 384.49 L 464.71 384.79 L 467.04 385.3 L 469.71 386.07 L 472.61 387.13 L 475.65 388.55 L 478.7 390.35 L 481.66 392.55 L 484.41 395.17 L 486.86 398.22 L 488.92 401.72 L 490.51 405.67 L 491.59 410.11 L 492.1 415.09 L 492.13 416.82 L 492.13 416.82 L 491.85 421.82 L 491.04 426.27 L 489.74 430.23 L 487.99 433.74 L 485.86 436.81 L 483.41 439.46 L 480.72 441.7 L 477.87 443.55 L 474.97 445.03 L 472.1 446.17 L 469.37 447 L 466.87 447.57 L 464.67 447.93 L 462.85 448.12 L 461.46 448.2 L 460.55 448.21 L 460.16 448.2 L 460.15 448.2 Z" fill-rule="evenodd" stroke="rgb(255,255,255)" stroke-opacity="0"/>
                </g>
                <g id="GRID.picPolyline.126.1">
                  <polyline id="GRID.picPolyline.126.1.1" points="509.74,322.17 509.74,322.17 510.08,322.07 511.09,321.75 512.73,321.23 514.96,320.51 517.69,319.6 520.82,318.53 524.23,317.32 527.75,316.03 531.27,314.69 534.64,313.33 537.79,311.98 540.66,310.65 541.71,310.13 541.71,310.13 542.99,309.46 544.48,308.64 546.17,307.65 548.03,306.49 549.98,305.18 551.95,303.77 553.85,302.29 555.62,300.79 557.23,299.27 557.93,298.54 557.93,298.54 559.63,296.62 561.15,294.67 562.5,292.76 563.62,291 564.47,289.56 565.02,288.53 565.3,287.98 565.35,287.88 645.05,153.5 516.23,153.44 455.98,266.57 455.98,266.57 455.77,266.93 455.15,267.97 454.13,269.64 452.75,271.86 451.06,274.52 449.11,277.5 446.99,280.63 444.78,283.75 442.58,286.71 440.46,289.37 438.46,291.63 436.63,293.42 436.06,293.91 436.06,293.91 434.16,295.43 432.38,296.77 430.67,297.95 428.97,298.94 427.28,299.72 425.58,300.29 423.87,300.65 422.08,300.83 420.77,300.86 420.77,300.86 419.33,300.86 417.14,300.86 414.28,300.86 410.91,300.86 407.19,300.86 403.37,300.86 399.68,300.86 396.36,300.86 393.61,300.86 391.59,300.86 390.42,300.86 390.16,300.86 390.18,153.52 276.19,153.47 276.19,529.83 505.1,529.83 505.1,529.83 505.46,529.82 506.52,529.77 508.24,529.65 510.58,529.42 513.52,529.06 517.01,528.53 521.01,527.8 525.47,526.84 530.35,525.61 535.57,524.08 541.07,522.23 546.79,520.02 552.65,517.43 558.56,514.44 564.46,511.03 570.27,507.2 575.9,502.92 581.29,498.19 586.36,493.01 591.06,487.37 595.32,481.26 599.1,474.68 602.34,467.61 605.02,460.05 607.09,451.97 608.51,443.33 609.26,434.11 609.37,428.76 609.37,428.76 609.03,419.19 608.02,410.2 606.39,401.74 604.16,393.78 601.36,386.3 598.04,379.28 594.23,372.71 589.98,366.58 585.34,360.89 580.37,355.64 575.12,350.83 569.68,346.44 564.1,342.49 558.45,338.96 552.83,335.84 547.29,333.11 541.91,330.75 536.77,328.76 531.92,327.09 527.42,325.73 523.34,324.64 519.71,323.79 516.59,323.17 514.01,322.72 512.01,322.43 510.62,322.26 509.87,322.18 509.74,322.17 509.74,322.17" fill="none" fill-opacity="0"/>
                  <polyline id="GRID.picPolyline.126.1.2" points="460.15,448.2 391.14,448.24 391.11,384.24 460.15,384.27 460.15,384.27 460.46,384.27 461.36,384.33 462.8,384.49 464.71,384.79 467.04,385.3 469.71,386.07 472.61,387.13 475.65,388.55 478.7,390.35 481.66,392.55 484.41,395.17 486.86,398.22 488.92,401.72 490.51,405.67 491.59,410.11 492.1,415.09 492.13,416.82 492.13,416.82 491.85,421.82 491.04,426.27 489.74,430.23 487.99,433.74 485.86,436.81 483.41,439.46 480.72,441.7 477.87,443.55 474.97,445.03 472.1,446.17 469.37,447 466.87,447.57 464.67,447.93 462.85,448.12 461.46,448.2 460.55,448.21 460.16,448.2 460.15,448.2 460.15,448.2" fill="none" fill-opacity="0"/>
                </g>
              </g>
            </g>
          </g>
        </g>
      </g>
      <g id="picture.shape.2">
        <defs>
          <clipPath id="picture.shape::picture.scale.2.clipPath">
            <rect x="0" y="0.47" width="671" height="671" fill="none" stroke="none"/>
          </clipPath>
        </defs>
        <g id="picture.shape::picture.scale.2" clip-path="url(#picture.shape::picture.scale.2.clipPath)">
          <g id="import.6.label.1">
            <g id="GRID.gTree.154.1">
              <g id="GRID.gTree.153.1" fill="rgb(143,143,150)" fill-opacity="1">
                <g id="GRID.picComplexPath.129.1" stroke="rgb(255,255,255)" stroke-opacity="0">
                  <g id="GRID.picPath.130.1" fill="url(#greyscale.1)" fill-opacity="1">
                    <path id="GRID.picPath.130.1.1" d="M 37.24 51.06 L 15.5 51.06 L 15.5 132.8 L 63.8 132.8 L 63.8 115.07 L 37.24 115.07 L 37.24 99.47 L 61.72 99.47 L 61.72 81.75 L 37.24 81.75 Z" fill-rule="nonzero" stroke="rgb(255,255,255)" stroke-opacity="0"/>
                  </g>
                  <g id="GRID.picPolyline.131.1">
                    <polyline id="GRID.picPolyline.131.1.1" points="37.24,51.06 15.5,51.06 15.5,132.8 63.8,132.8 63.8,115.07 37.24,115.07 37.24,99.47 61.72,99.47 61.72,81.75 37.24,81.75 37.24,51.06" fill="none" fill-opacity="0"/>
                  </g>
                </g>
                <g id="GRID.picComplexPath.132.1" stroke="rgb(255,255,255)" stroke-opacity="0">
                  <g id="GRID.picPath.133.1" fill="url(#greyscale.1)" fill-opacity="1">
                    <path id="GRID.picPath.133.1.1" d="M 153.44 92.04 L 153.44 92.04 L 153.35 88.38 L 153.07 84.78 L 152.57 81.19 L 151.85 77.66 L 150.9 74.23 L 149.74 71.01 L 148.41 68.05 L 146.93 65.4 L 145.32 63.06 L 143.6 60.98 L 143.31 60.67 L 143.31 60.67 L 141.34 58.78 L 139.12 57.02 L 136.59 55.41 L 133.76 53.95 L 130.65 52.68 L 127.35 51.65 L 123.93 50.86 L 120.47 50.33 L 116.98 50.03 L 113.69 49.94 L 113.69 49.94 L 110.19 50.04 L 106.74 50.36 L 103.31 50.92 L 99.92 51.73 L 96.65 52.79 L 93.57 54.08 L 90.75 55.57 L 88.24 57.21 L 86.02 58.99 L 84.21 60.74 L 84.21 60.74 L 82.44 62.78 L 80.8 65.09 L 79.28 67.69 L 77.9 70.61 L 76.7 73.8 L 75.71 77.19 L 74.94 80.71 L 74.4 84.29 L 74.08 87.88 L 73.96 91.52 L 73.95 92.15 L 73.95 92.15 L 74.05 95.78 L 74.33 99.36 L 74.83 102.92 L 75.57 106.43 L 76.53 109.84 L 77.69 113.05 L 79.04 116 L 80.54 118.64 L 82.16 120.98 L 83.91 123.06 L 84.15 123.31 L 84.15 123.31 L 86.13 125.21 L 88.36 126.97 L 90.89 128.6 L 93.74 130.06 L 96.84 131.33 L 100.14 132.37 L 103.56 133.16 L 107.02 133.7 L 110.49 134 L 113.81 134.09 L 113.81 134.09 L 117.36 133.99 L 120.84 133.67 L 124.31 133.12 L 127.71 132.32 L 131 131.27 L 134.09 129.99 L 136.89 128.52 L 139.39 126.9 L 141.58 125.14 L 143.37 123.39 L 143.37 123.39 L 145.11 121.36 L 146.73 119.08 L 148.22 116.48 L 149.57 113.57 L 150.75 110.38 L 151.73 106.98 L 152.48 103.45 L 153.01 99.87 L 153.32 96.26 L 153.44 92.61 L 153.44 92.04 Z M 97.21 92.04 L 97.21 92.04 L 97.31 88.69 L 97.61 85.54 L 98.13 82.58 L 98.88 79.81 L 99.88 77.27 L 101.13 75 L 102.6 73.04 L 104.27 71.42 L 106.12 70.15 L 108.11 69.24 L 110.23 68.65 L 112.49 68.36 L 113.69 68.33 L 113.69 68.33 L 115.68 68.42 L 117.62 68.72 L 119.53 69.25 L 121.34 70.01 L 122.98 70.97 L 124.39 72.1 L 125.56 73.35 L 126.13 74.09 L 126.13 74.09 L 127.05 75.6 L 127.89 77.42 L 128.63 79.58 L 129.25 82.04 L 129.71 84.72 L 130.01 87.5 L 130.16 90.34 L 130.18 92.04 L 130.18 92.04 L 130.12 94.93 L 129.91 97.74 L 129.54 100.5 L 129 103.11 L 128.33 105.48 L 127.54 107.51 L 126.66 109.21 L 126.06 110.12 L 126.06 110.12 L 124.99 111.47 L 123.7 112.68 L 122.2 113.76 L 120.49 114.65 L 118.65 115.31 L 116.75 115.74 L 114.83 115.94 L 113.81 115.97 L 113.81 115.97 L 111.47 115.83 L 109.27 115.4 L 107.2 114.65 L 105.27 113.56 L 103.5 112.11 L 101.91 110.32 L 100.54 108.19 L 99.4 105.78 L 98.51 103.11 L 97.86 100.24 L 97.44 97.17 L 97.24 93.92 L 97.21 92.04 Z" fill-rule="nonzero" stroke="rgb(255,255,255)" stroke-opacity="0"/>
                  </g>
                  <g id="GRID.picPolyline.134.1">
                    <polyline id="GRID.picPolyline.134.1.1" points="153.44,92.04 153.44,92.04 153.35,88.38 153.07,84.78 152.57,81.19 151.85,77.66 150.9,74.23 149.74,71.01 148.41,68.05 146.93,65.4 145.32,63.06 143.6,60.98 143.31,60.67 143.31,60.67 141.34,58.78 139.12,57.02 136.59,55.41 133.76,53.95 130.65,52.68 127.35,51.65 123.93,50.86 120.47,50.33 116.98,50.03 113.69,49.94 113.69,49.94 110.19,50.04 106.74,50.36 103.31,50.92 99.92,51.73 96.65,52.79 93.57,54.08 90.75,55.57 88.24,57.21 86.02,58.99 84.21,60.74 84.21,60.74 82.44,62.78 80.8,65.09 79.28,67.69 77.9,70.61 76.7,73.8 75.71,77.19 74.94,80.71 74.4,84.29 74.08,87.88 73.96,91.52 73.95,92.15 73.95,92.15 74.05,95.78 74.33,99.36 74.83,102.92 75.57,106.43 76.53,109.84 77.69,113.05 79.04,116 80.54,118.64 82.16,120.98 83.91,123.06 84.15,123.31 84.15,123.31 86.13,125.21 88.36,126.97 90.89,128.6 93.74,130.06 96.84,131.33 100.14,132.37 103.56,133.16 107.02,133.7 110.49,134 113.81,134.09 113.81,134.09 117.36,133.99 120.84,133.67 124.31,133.12 127.71,132.32 131,131.27 134.09,129.99 136.89,128.52 139.39,126.9 141.58,125.14 143.37,123.39 143.37,123.39 145.11,121.36 146.73,119.08 148.22,116.48 149.57,113.57 150.75,110.38 151.73,106.98 152.48,103.45 153.01,99.87 153.32,96.26 153.44,92.61 153.44,92.04 153.44,92.04" fill="none" fill-opacity="0"/>
                    <polyline id="GRID.picPolyline.134.1.2" points="97.21,92.04 97.21,92.04 97.31,88.69 97.61,85.54 98.13,82.58 98.88,79.81 99.88,77.27 101.13,75 102.6,73.04 104.27,71.42 106.12,70.15 108.11,69.24 110.23,68.65 112.49,68.36 113.69,68.33 113.69,68.33 115.68,68.42 117.62,68.72 119.53,69.25 121.34,70.01 122.98,70.97 124.39,72.1 125.56,73.35 126.13,74.09 126.13,74.09 127.05,75.6 127.89,77.42 128.63,79.58 129.25,82.04 129.71,84.72 130.01,87.5 130.16,90.34 130.18,92.04 130.18,92.04 130.12,94.93 129.91,97.74 129.54,100.5 129,103.11 128.33,105.48 127.54,107.51 126.66,109.21 126.06,110.12 126.06,110.12 124.99,111.47 123.7,112.68 122.2,113.76 120.49,114.65 118.65,115.31 116.75,115.74 114.83,115.94 113.81,115.97 113.81,115.97 111.47,115.83 109.27,115.4 107.2,114.65 105.27,113.56 103.5,112.11 101.91,110.32 100.54,108.19 99.4,105.78 98.51,103.11 97.86,100.24 97.44,97.17 97.24,93.92 97.21,92.04 97.21,92.04" fill="none" fill-opacity="0"/>
                  </g>
                </g>
                <g id="GRID.picComplexPath.135.1" stroke="rgb(255,255,255)" stroke-opacity="0">
                  <g id="GRID.picPath.136.1" fill="url(#greyscale.1)" fill-opacity="1">
                    <path id="GRID.picPath.136.1.1" d="M 189.92 80.81 L 189.92 51.06 L 167.85 51.06 L 167.85 132.8 L 194.62 132.8 L 194.62 132.8 L 198.75 132.69 L 202.65 132.36 L 206.35 131.79 L 209.85 130.96 L 213.13 129.86 L 216.15 128.49 L 218.87 126.85 L 221.25 124.96 L 223.28 122.85 L 224.93 120.53 L 226.2 118.05 L 227.11 115.42 L 227.67 112.64 L 227.93 109.71 L 227.94 108.64 L 227.94 108.64 L 227.82 106.09 L 227.42 103.56 L 226.72 101.05 L 225.7 98.55 L 224.36 96.14 L 222.73 93.85 L 220.86 91.75 L 218.79 89.87 L 216.54 88.2 L 214.11 86.7 L 214.07 86.68 L 237.89 51.06 L 212.84 51.06 L 195.51 80.81 Z M 189.92 97.41 L 194.06 97.41 L 194.06 97.41 L 196.1 97.51 L 197.98 97.8 L 199.72 98.33 L 201.29 99.09 L 202.66 100.09 L 203.77 101.3 L 204.62 102.7 L 205.2 104.25 L 205.53 105.92 L 205.62 107.65 L 205.62 107.65 L 205.51 109.18 L 205.16 110.59 L 204.54 111.9 L 203.64 113.06 L 202.46 114.06 L 201.03 114.87 L 199.4 115.47 L 197.6 115.86 L 195.65 116.06 L 194.29 116.09 L 189.92 116.09 Z" fill-rule="nonzero" stroke="rgb(255,255,255)" stroke-opacity="0"/>
                  </g>
                  <g id="GRID.picPolyline.137.1">
                    <polyline id="GRID.picPolyline.137.1.1" points="189.92,80.81 189.92,51.06 167.85,51.06 167.85,132.8 194.62,132.8 194.62,132.8 198.75,132.69 202.65,132.36 206.35,131.79 209.85,130.96 213.13,129.86 216.15,128.49 218.87,126.85 221.25,124.96 223.28,122.85 224.93,120.53 226.2,118.05 227.11,115.42 227.67,112.64 227.93,109.71 227.94,108.64 227.94,108.64 227.82,106.09 227.42,103.56 226.72,101.05 225.7,98.55 224.36,96.14 222.73,93.85 220.86,91.75 218.79,89.87 216.54,88.2 214.11,86.7 214.07,86.68 237.89,51.06 212.84,51.06 195.51,80.81 189.92,80.81" fill="none" fill-opacity="0"/>
                    <polyline id="GRID.picPolyline.137.1.2" points="189.92,97.41 194.06,97.41 194.06,97.41 196.1,97.51 197.98,97.8 199.72,98.33 201.29,99.09 202.66,100.09 203.77,101.3 204.62,102.7 205.2,104.25 205.53,105.92 205.62,107.65 205.62,107.65 205.51,109.18 205.16,110.59 204.54,111.9 203.64,113.06 202.46,114.06 201.03,114.87 199.4,115.47 197.6,115.86 195.65,116.06 194.29,116.09 189.92,116.09 189.92,97.41" fill="none" fill-opacity="0"/>
                  </g>
                </g>
                <g id="GRID.picComplexPath.138.1" stroke="rgb(255,255,255)" stroke-opacity="0">
                  <g id="GRID.picPath.139.1" fill="url(#greyscale.1)" fill-opacity="1">
                    <path id="GRID.picPath.139.1.1" d="M 333.29 51.06 L 307.18 51.06 L 299.36 86.68 L 299.36 86.68 L 299.14 87.61 L 298.85 88.94 L 298.51 90.67 L 298.12 92.68 L 297.72 94.83 L 297.59 95.56 L 297.59 95.56 L 297.23 97.6 L 296.88 99.66 L 296.55 101.71 L 296.25 103.63 L 296.02 105.32 L 295.84 106.69 L 295.84 106.69 L 295.66 105.36 L 295.43 103.78 L 295.14 102 L 294.82 100.14 L 294.49 98.3 L 294.37 97.66 L 294.37 97.66 L 294.03 95.89 L 293.68 94.04 L 293.3 92.14 L 292.93 90.32 L 292.59 88.68 L 292.39 87.74 L 292.39 87.74 L 292.17 86.75 L 291.85 85.28 L 291.41 83.27 L 290.84 80.69 L 290.14 77.54 L 289.32 73.87 L 288.41 69.75 L 287.42 65.27 L 286.36 60.52 L 285.25 55.51 L 284.26 51.06 L 258.15 51.06 L 237.91 132.8 L 259.21 132.8 L 268.11 91.82 L 268.11 91.82 L 268.76 88.86 L 269.38 85.92 L 269.98 82.98 L 270.55 80.09 L 271.06 77.35 L 271.5 74.86 L 271.86 72.66 L 272.16 70.73 L 272.23 70.18 L 272.23 70.18 L 272.45 71.77 L 272.72 73.62 L 273.06 75.76 L 273.46 78.13 L 273.9 80.62 L 274.35 83.12 L 274.83 85.64 L 274.83 85.66 L 274.83 85.66 L 275.31 88.12 L 275.81 90.6 L 276.32 93.1 L 276.85 95.53 L 277.35 97.78 L 277.81 99.78 L 278.24 101.54 L 278.33 101.88 L 285.55 132.8 L 306.02 132.8 L 313 101.88 L 313 101.88 L 313.45 99.98 L 313.93 97.89 L 314.43 95.59 L 314.96 93.12 L 315.48 90.6 L 315.97 88.12 L 316.44 85.7 L 316.62 84.72 L 316.62 84.72 L 317.11 82.16 L 317.57 79.64 L 318 77.19 L 318.38 74.92 L 318.7 72.93 L 318.95 71.28 L 319.1 70.18 L 319.1 70.18 L 319.3 71.69 L 319.57 73.53 L 319.94 75.76 L 320.4 78.36 L 320.94 81.25 L 321.54 84.33 L 322.18 87.51 L 322.86 90.78 L 323.05 91.71 L 332.12 132.8 L 353.42 132.8 Z" fill-rule="nonzero" stroke="rgb(255,255,255)" stroke-opacity="0"/>
                  </g>
                  <g id="GRID.picPolyline.140.1">
                    <polyline id="GRID.picPolyline.140.1.1" points="333.29,51.06 307.18,51.06 299.36,86.68 299.36,86.68 299.14,87.61 298.85,88.94 298.51,90.67 298.12,92.68 297.72,94.83 297.59,95.56 297.59,95.56 297.23,97.6 296.88,99.66 296.55,101.71 296.25,103.63 296.02,105.32 295.84,106.69 295.84,106.69 295.66,105.36 295.43,103.78 295.14,102 294.82,100.14 294.49,98.3 294.37,97.66 294.37,97.66 294.03,95.89 293.68,94.04 293.3,92.14 292.93,90.32 292.59,88.68 292.39,87.74 292.39,87.74 292.17,86.75 291.85,85.28 291.41,83.27 290.84,80.69 290.14,77.54 289.32,73.87 288.41,69.75 287.42,65.27 286.36,60.52 285.25,55.51 284.26,51.06 258.15,51.06 237.91,132.8 259.21,132.8 268.11,91.82 268.11,91.82 268.76,88.86 269.38,85.92 269.98,82.98 270.55,80.09 271.06,77.35 271.5,74.86 271.86,72.66 272.16,70.73 272.23,70.18 272.23,70.18 272.45,71.77 272.72,73.62 273.06,75.76 273.46,78.13 273.9,80.62 274.35,83.12 274.83,85.64 274.83,85.66 274.83,85.66 275.31,88.12 275.81,90.6 276.32,93.1 276.85,95.53 277.35,97.78 277.81,99.78 278.24,101.54 278.33,101.88 285.55,132.8 306.02,132.8 313,101.88 313,101.88 313.45,99.98 313.93,97.89 314.43,95.59 314.96,93.12 315.48,90.6 315.97,88.12 316.44,85.7 316.62,84.72 316.62,84.72 317.11,82.16 317.57,79.64 318,77.19 318.38,74.92 318.7,72.93 318.95,71.28 319.1,70.18 319.1,70.18 319.3,71.69 319.57,73.53 319.94,75.76 320.4,78.36 320.94,81.25 321.54,84.33 322.18,87.51 322.86,90.78 323.05,91.71 332.12,132.8 353.42,132.8 333.29,51.06" fill="none" fill-opacity="0"/>
                  </g>
                </g>
                <g id="GRID.picComplexPath.141.1" stroke="rgb(255,255,255)" stroke-opacity="0">
                  <g id="GRID.picPath.142.1" fill="url(#greyscale.1)" fill-opacity="1">
                    <path id="GRID.picPath.142.1.1" d="M 413.65 51.06 L 409.63 66.37 L 383.07 66.37 L 378.93 51.06 L 354.67 51.06 L 381.34 133.13 L 410.8 133.13 L 437.8 51.06 Z M 405.04 84.49 L 401.52 97.91 L 401.52 97.91 L 401.13 99.34 L 400.69 101.02 L 400.18 102.94 L 399.65 105.02 L 399.11 107.14 L 398.59 109.23 L 398.53 109.48 L 398.53 109.48 L 397.99 111.69 L 397.48 113.82 L 397.03 115.81 L 396.65 117.53 L 396.37 118.89 L 396.22 119.67 L 396.22 119.67 L 396.01 118.58 L 395.73 117.15 L 395.36 115.38 L 394.92 113.39 L 394.46 111.31 L 394.22 110.27 L 394.22 110.27 L 393.88 108.8 L 393.44 106.98 L 392.89 104.74 L 392.23 102.09 L 391.46 99.08 L 390.61 95.78 L 389.71 92.3 L 388.77 88.7 L 387.79 84.97 L 387.67 84.49 Z" fill-rule="nonzero" stroke="rgb(255,255,255)" stroke-opacity="0"/>
                  </g>
                  <g id="GRID.picPolyline.143.1">
                    <polyline id="GRID.picPolyline.143.1.1" points="413.65,51.06 409.63,66.37 383.07,66.37 378.93,51.06 354.67,51.06 381.34,133.13 410.8,133.13 437.8,51.06 413.65,51.06" fill="none" fill-opacity="0"/>
                    <polyline id="GRID.picPolyline.143.1.2" points="405.04,84.49 401.52,97.91 401.52,97.91 401.13,99.34 400.69,101.02 400.18,102.94 399.65,105.02 399.11,107.14 398.59,109.23 398.53,109.48 398.53,109.48 397.99,111.69 397.48,113.82 397.03,115.81 396.65,117.53 396.37,118.89 396.22,119.67 396.22,119.67 396.01,118.58 395.73,117.15 395.36,115.38 394.92,113.39 394.46,111.31 394.22,110.27 394.22,110.27 393.88,108.8 393.44,106.98 392.89,104.74 392.23,102.09 391.46,99.08 390.61,95.78 389.71,92.3 388.77,88.7 387.79,84.97 387.67,84.49 405.04,84.49" fill="none" fill-opacity="0"/>
                  </g>
                </g>
                <g id="GRID.picComplexPath.144.1" stroke="rgb(255,255,255)" stroke-opacity="0">
                  <g id="GRID.picPath.145.1" fill="url(#greyscale.1)" fill-opacity="1">
                    <path id="GRID.picPath.145.1.1" d="M 468.39 80.81 L 468.39 51.06 L 446.32 51.06 L 446.32 132.8 L 473.09 132.8 L 473.09 132.8 L 477.21 132.69 L 481.12 132.36 L 484.82 131.79 L 488.32 130.96 L 491.6 129.86 L 494.62 128.49 L 497.34 126.85 L 499.72 124.96 L 501.75 122.85 L 503.39 120.53 L 504.67 118.05 L 505.58 115.42 L 506.14 112.64 L 506.4 109.71 L 506.41 108.64 L 506.41 108.64 L 506.29 106.09 L 505.89 103.56 L 505.19 101.05 L 504.17 98.55 L 502.83 96.14 L 501.2 93.85 L 499.33 91.75 L 497.26 89.87 L 495.01 88.2 L 492.58 86.7 L 492.54 86.68 L 516.36 51.06 L 491.31 51.06 L 473.98 80.81 Z M 468.39 97.41 L 472.53 97.41 L 472.53 97.41 L 474.56 97.51 L 476.45 97.8 L 478.19 98.33 L 479.76 99.09 L 481.12 100.09 L 482.24 101.3 L 483.09 102.7 L 483.67 104.25 L 484 105.92 L 484.09 107.65 L 484.09 107.65 L 483.98 109.18 L 483.63 110.59 L 483.01 111.9 L 482.11 113.06 L 480.93 114.06 L 479.5 114.87 L 477.87 115.47 L 476.07 115.86 L 474.12 116.06 L 472.76 116.09 L 468.39 116.09 Z" fill-rule="nonzero" stroke="rgb(255,255,255)" stroke-opacity="0"/>
                  </g>
                  <g id="GRID.picPolyline.146.1">
                    <polyline id="GRID.picPolyline.146.1.1" points="468.39,80.81 468.39,51.06 446.32,51.06 446.32,132.8 473.09,132.8 473.09,132.8 477.21,132.69 481.12,132.36 484.82,131.79 488.32,130.96 491.6,129.86 494.62,128.49 497.34,126.85 499.72,124.96 501.75,122.85 503.39,120.53 504.67,118.05 505.58,115.42 506.14,112.64 506.4,109.71 506.41,108.64 506.41,108.64 506.29,106.09 505.89,103.56 505.19,101.05 504.17,98.55 502.83,96.14 501.2,93.85 499.33,91.75 497.26,89.87 495.01,88.2 492.58,86.7 492.54,86.68 516.36,51.06 491.31,51.06 473.98,80.81 468.39,80.81" fill="none" fill-opacity="0"/>
                    <polyline id="GRID.picPolyline.146.1.2" points="468.39,97.41 472.53,97.41 472.53,97.41 474.56,97.51 476.45,97.8 478.19,98.33 479.76,99.09 481.12,100.09 482.24,101.3 483.09,102.7 483.67,104.25 484,105.92 484.09,107.65 484.09,107.65 483.98,109.18 483.63,110.59 483.01,111.9 482.11,113.06 480.93,114.06 479.5,114.87 477.87,115.47 476.07,115.86 474.12,116.06 472.76,116.09 468.39,116.09 468.39,97.41" fill="none" fill-opacity="0"/>
                  </g>
                </g>
                <g id="GRID.picComplexPath.147.1" stroke="rgb(255,255,255)" stroke-opacity="0">
                  <g id="GRID.picPath.148.1" fill="url(#greyscale.1)" fill-opacity="1">
                    <path id="GRID.picPath.148.1.1" d="M 592.87 93.67 L 592.87 93.67 L 592.77 90.06 L 592.46 86.5 L 591.92 82.95 L 591.12 79.44 L 590.09 76.03 L 588.82 72.79 L 587.35 69.81 L 585.73 67.12 L 583.97 64.74 L 582.07 62.61 L 581.59 62.13 L 581.59 62.13 L 579.48 60.23 L 577.14 58.47 L 574.5 56.85 L 571.57 55.37 L 568.37 54.07 L 564.99 53 L 561.49 52.16 L 557.95 51.57 L 554.4 51.21 L 550.82 51.07 L 549.93 51.06 L 523.49 51.06 L 523.49 132.8 L 551.78 132.8 L 551.78 132.8 L 555.33 132.7 L 558.83 132.41 L 562.32 131.9 L 565.77 131.16 L 569.12 130.19 L 572.28 129.01 L 575.18 127.65 L 577.78 126.14 L 580.08 124.5 L 582.14 122.74 L 582.15 122.73 L 582.15 122.73 L 584.06 120.76 L 585.83 118.54 L 587.45 116.02 L 588.92 113.19 L 590.18 110.11 L 591.21 106.84 L 591.99 103.46 L 592.51 100.05 L 592.8 96.62 L 592.87 93.67 Z M 569.94 92.88 L 569.94 92.88 L 569.87 95.62 L 569.62 98.3 L 569.19 100.92 L 568.57 103.39 L 567.78 105.6 L 566.88 107.49 L 565.87 109.06 L 565.49 109.54 L 565.49 109.54 L 564.17 110.93 L 562.57 112.16 L 560.65 113.22 L 558.47 114.05 L 556.16 114.61 L 553.8 114.91 L 551.99 114.97 L 545.56 114.97 L 545.56 69.18 L 550.49 69.18 L 550.49 69.18 L 553.04 69.29 L 555.53 69.64 L 557.95 70.26 L 560.2 71.14 L 562.18 72.25 L 563.83 73.52 L 565.19 74.94 L 565.24 75.01 L 565.24 75.01 L 566.31 76.53 L 567.28 78.35 L 568.14 80.5 L 568.85 82.96 L 569.39 85.61 L 569.74 88.36 L 569.92 91.15 L 569.94 92.88 Z" fill-rule="nonzero" stroke="rgb(255,255,255)" stroke-opacity="0"/>
                  </g>
                  <g id="GRID.picPolyline.149.1">
                    <polyline id="GRID.picPolyline.149.1.1" points="592.87,93.67 592.87,93.67 592.77,90.06 592.46,86.5 591.92,82.95 591.12,79.44 590.09,76.03 588.82,72.79 587.35,69.81 585.73,67.12 583.97,64.74 582.07,62.61 581.59,62.13 581.59,62.13 579.48,60.23 577.14,58.47 574.5,56.85 571.57,55.37 568.37,54.07 564.99,53 561.49,52.16 557.95,51.57 554.4,51.21 550.82,51.07 549.93,51.06 523.49,51.06 523.49,132.8 551.78,132.8 551.78,132.8 555.33,132.7 558.83,132.41 562.32,131.9 565.77,131.16 569.12,130.19 572.28,129.01 575.18,127.65 577.78,126.14 580.08,124.5 582.14,122.74 582.15,122.73 582.15,122.73 584.06,120.76 585.83,118.54 587.45,116.02 588.92,113.19 590.18,110.11 591.21,106.84 591.99,103.46 592.51,100.05 592.8,96.62 592.87,93.67 592.87,93.67" fill="none" fill-opacity="0"/>
                    <polyline id="GRID.picPolyline.149.1.2" points="569.94,92.88 569.94,92.88 569.87,95.62 569.62,98.3 569.19,100.92 568.57,103.39 567.78,105.6 566.88,107.49 565.87,109.06 565.49,109.54 565.49,109.54 564.17,110.93 562.57,112.16 560.65,113.22 558.47,114.05 556.16,114.61 553.8,114.91 551.99,114.97 545.56,114.97 545.56,69.18 550.49,69.18 550.49,69.18 553.04,69.29 555.53,69.64 557.95,70.26 560.2,71.14 562.18,72.25 563.83,73.52 565.19,74.94 565.24,75.01 565.24,75.01 566.31,76.53 567.28,78.35 568.14,80.5 568.85,82.96 569.39,85.61 569.74,88.36 569.92,91.15 569.94,92.88 569.94,92.88" fill="none" fill-opacity="0"/>
                  </g>
                </g>
                <g id="GRID.picComplexPath.150.1" stroke="rgb(255,255,255)" stroke-opacity="0">
                  <g id="GRID.picPath.151.1" fill="url(#greyscale.1)" fill-opacity="1">
                    <path id="GRID.picPath.151.1.1" d="M 660.62 75.88 L 660.62 75.88 L 660.54 73.78 L 660.28 71.63 L 659.81 69.42 L 659.15 67.25 L 658.34 65.23 L 657.4 63.43 L 656.76 62.38 L 656.76 62.38 L 655.62 60.8 L 654.25 59.24 L 652.65 57.7 L 650.85 56.25 L 648.95 54.97 L 647.03 53.88 L 645.63 53.21 L 645.63 53.21 L 643.75 52.44 L 641.68 51.75 L 639.39 51.14 L 636.92 50.64 L 634.4 50.28 L 631.91 50.05 L 629.48 49.95 L 628.59 49.94 L 628.59 49.94 L 626.33 49.97 L 624.04 50.05 L 621.74 50.19 L 619.53 50.39 L 617.53 50.63 L 615.77 50.91 L 614.88 51.08 L 614.88 51.08 L 613.2 51.47 L 611.37 51.98 L 609.41 52.61 L 607.41 53.35 L 605.49 54.13 L 603.69 54.95 L 603.38 55.1 L 603.38 74.78 L 603.38 74.78 L 605.16 73.9 L 607.08 73.02 L 609.15 72.16 L 611.27 71.36 L 613.35 70.64 L 615.3 70.04 L 616.5 69.7 L 616.5 69.7 L 618.5 69.21 L 620.57 68.77 L 622.72 68.41 L 624.83 68.13 L 626.78 67.97 L 628.54 67.9 L 629.03 67.89 L 629.03 67.89 L 630.78 67.96 L 632.47 68.17 L 634.02 68.53 L 635.28 69.02 L 636.24 69.6 L 636.24 69.6 L 637.02 70.28 L 637.67 71.1 L 638.16 72.04 L 638.45 73.02 L 638.53 73.99 L 638.53 73.99 L 638.5 74.6 L 638.38 75.24 L 638.19 75.87 L 637.93 76.44 L 637.62 76.92 L 637.62 76.92 L 637.23 77.39 L 636.71 77.91 L 636.07 78.45 L 635.37 78.97 L 634.64 79.46 L 634.64 79.46 L 633.85 79.92 L 632.64 80.55 L 630.98 81.38 L 628.94 82.35 L 626.64 83.42 L 624.16 84.55 L 623.78 84.72 L 623.78 84.72 L 621.61 85.74 L 619.49 86.82 L 617.42 87.95 L 615.51 89.09 L 613.85 90.18 L 612.48 91.18 L 611.78 91.75 L 611.78 91.75 L 610.5 92.94 L 609.24 94.28 L 608.06 95.77 L 607.04 97.3 L 606.22 98.79 L 605.85 99.57 L 605.85 99.57 L 605.29 101.06 L 604.79 102.75 L 604.39 104.64 L 604.12 106.62 L 603.97 108.57 L 603.94 110.04 L 603.94 110.04 L 604.04 112.35 L 604.35 114.64 L 604.89 116.93 L 605.68 119.17 L 606.71 121.31 L 607.93 123.28 L 609.32 125.03 L 610.84 126.56 L 612.16 127.66 L 612.16 127.66 L 614.01 128.94 L 616.11 130.12 L 618.5 131.18 L 621.17 132.11 L 624.04 132.86 L 627.01 133.42 L 630.01 133.78 L 633.02 133.96 L 634.75 133.98 L 634.75 133.98 L 637.33 133.92 L 640.02 133.71 L 642.88 133.35 L 645.87 132.82 L 648.92 132.13 L 651.94 131.31 L 654.86 130.37 L 657.65 129.35 L 660.32 128.23 L 660.62 128.09 L 653.86 111.06 L 653.86 111.06 L 651.25 112.2 L 648.61 113.23 L 645.91 114.15 L 643.22 114.94 L 640.62 115.55 L 638.22 115.98 L 636.05 116.22 L 634.07 116.3 L 634.06 116.3 L 634.06 116.3 L 632.53 116.24 L 631.06 116.05 L 629.72 115.73 L 628.62 115.29 L 627.8 114.78 L 627.8 114.78 L 627.14 114.19 L 626.58 113.49 L 626.16 112.69 L 625.92 111.87 L 625.84 111.06 L 625.84 111.06 L 625.94 110.17 L 626.24 109.24 L 626.77 108.31 L 627.48 107.47 L 628.32 106.73 L 628.32 106.73 L 629.16 106.16 L 630.41 105.42 L 632.12 104.49 L 634.25 103.41 L 636.68 102.22 L 639.32 100.98 L 641.84 99.82 L 641.84 99.82 L 644.35 98.63 L 646.78 97.35 L 649.11 95.96 L 651.27 94.5 L 653.17 93.03 L 654.74 91.61 L 656 90.25 L 656.51 89.61 L 656.51 89.61 L 657.56 88.04 L 658.51 86.23 L 659.32 84.19 L 659.95 81.97 L 660.37 79.69 L 660.58 77.45 L 660.62 75.88 Z" fill-rule="nonzero" stroke="rgb(255,255,255)" stroke-opacity="0"/>
                  </g>
                  <g id="GRID.picPolyline.152.1">
                    <polyline id="GRID.picPolyline.152.1.1" points="660.62,75.88 660.62,75.88 660.54,73.78 660.28,71.63 659.81,69.42 659.15,67.25 658.34,65.23 657.4,63.43 656.76,62.38 656.76,62.38 655.62,60.8 654.25,59.24 652.65,57.7 650.85,56.25 648.95,54.97 647.03,53.88 645.63,53.21 645.63,53.21 643.75,52.44 641.68,51.75 639.39,51.14 636.92,50.64 634.4,50.28 631.91,50.05 629.48,49.95 628.59,49.94 628.59,49.94 626.33,49.97 624.04,50.05 621.74,50.19 619.53,50.39 617.53,50.63 615.77,50.91 614.88,51.08 614.88,51.08 613.2,51.47 611.37,51.98 609.41,52.61 607.41,53.35 605.49,54.13 603.69,54.95 603.38,55.1 603.38,74.78 603.38,74.78 605.16,73.9 607.08,73.02 609.15,72.16 611.27,71.36 613.35,70.64 615.3,70.04 616.5,69.7 616.5,69.7 618.5,69.21 620.57,68.77 622.72,68.41 624.83,68.13 626.78,67.97 628.54,67.9 629.03,67.89 629.03,67.89 630.78,67.96 632.47,68.17 634.02,68.53 635.28,69.02 636.24,69.6 636.24,69.6 637.02,70.28 637.67,71.1 638.16,72.04 638.45,73.02 638.53,73.99 638.53,73.99 638.5,74.6 638.38,75.24 638.19,75.87 637.93,76.44 637.62,76.92 637.62,76.92 637.23,77.39 636.71,77.91 636.07,78.45 635.37,78.97 634.64,79.46 634.64,79.46 633.85,79.92 632.64,80.55 630.98,81.38 628.94,82.35 626.64,83.42 624.16,84.55 623.78,84.72 623.78,84.72 621.61,85.74 619.49,86.82 617.42,87.95 615.51,89.09 613.85,90.18 612.48,91.18 611.78,91.75 611.78,91.75 610.5,92.94 609.24,94.28 608.06,95.77 607.04,97.3 606.22,98.79 605.85,99.57 605.85,99.57 605.29,101.06 604.79,102.75 604.39,104.64 604.12,106.62 603.97,108.57 603.94,110.04 603.94,110.04 604.04,112.35 604.35,114.64 604.89,116.93 605.68,119.17 606.71,121.31 607.93,123.28 609.32,125.03 610.84,126.56 612.16,127.66 612.16,127.66 614.01,128.94 616.11,130.12 618.5,131.18 621.17,132.11 624.04,132.86 627.01,133.42 630.01,133.78 633.02,133.96 634.75,133.98 634.75,133.98 637.33,133.92 640.02,133.71 642.88,133.35 645.87,132.82 648.92,132.13 651.94,131.31 654.86,130.37 657.65,129.35 660.32,128.23 660.62,128.09 653.86,111.06 653.86,111.06 651.25,112.2 648.61,113.23 645.91,114.15 643.22,114.94 640.62,115.55 638.22,115.98 636.05,116.22 634.07,116.3 634.06,116.3 634.06,116.3 632.53,116.24 631.06,116.05 629.72,115.73 628.62,115.29 627.8,114.78 627.8,114.78 627.14,114.19 626.58,113.49 626.16,112.69 625.92,111.87 625.84,111.06 625.84,111.06 625.94,110.17 626.24,109.24 626.77,108.31 627.48,107.47 628.32,106.73 628.32,106.73 629.16,106.16 630.41,105.42 632.12,104.49 634.25,103.41 636.68,102.22 639.32,100.98 641.84,99.82 641.84,99.82 644.35,98.63 646.78,97.35 649.11,95.96 651.27,94.5 653.17,93.03 654.74,91.61 656,90.25 656.51,89.61 656.51,89.61 657.56,88.04 658.51,86.23 659.32,84.19 659.95,81.97 660.37,79.69 660.58,77.45 660.62,75.88 660.62,75.88" fill="none" fill-opacity="0"/>
                  </g>
                </g>
              </g>
            </g>
          </g>
        </g>
      </g>
    </g>
  </g>
</svg>