<?xml version="1.0" encoding="UTF-8"?>
<svg xmlns="http://www.w3.org/2000/svg" xmlns:xlink="http://www.w3.org/1999/xlink" width="671px" height="671.23px" viewBox="0 0 671 671.23" version="1.1">
  <metadata xmlns:gridsvg="http://www.stat.auckland.ac.nz/~paul/R/gridSVG/">
    <gridsvg:generator name="gridSVG" version="1.5-1" time="2017-01-12 15:27:55"/>
    <gridsvg:argument name="name" value="forwards.svg"/>
    <gridsvg:argument name="exportCoords" value="none"/>
    <gridsvg:argument name="exportMappings" value="none"/>
    <gridsvg:argument name="exportJS" value="none"/>
    <gridsvg:argument name="res" value="96"/>
    <gridsvg:argument name="prefix" value=""/>
    <gridsvg:argument name="addClasses" value="FALSE"/>
    <gridsvg:argument name="indent" value="TRUE"/>
    <gridsvg:argument name="htmlWrapper" value="FALSE"/>
    <gridsvg:argument name="usePaths" value="vpPaths"/>
    <gridsvg:argument name="uniqueNames" value="TRUE"/>
    <gridsvg:separator name="id.sep" value="."/>
    <gridsvg:separator name="gPath.sep" value="::"/>
    <gridsvg:separator name="vpPath.sep" value="::"/>
  </metadata>
  <g transform="translate(0, 671.23) scale(1, -1)">
    <g id="gridSVG" fill="none" stroke="rgb(0,0,0)" stroke-dasharray="none" stroke-width="1" font-size="16" font-family="Helvetica, Arial, FreeSans, Liberation Sans, Nimbus Sans L, sans-serif" opacity="1" stroke-linecap="round" stroke-linejoin="round" stroke-miterlimit="10" stroke-opacity="1" fill-opacity="0" font-weight="normal" font-style="normal">
      <defs>
        <linearGradient id="import.12.linear0.1" x1="0.84" x2="669.15" y1="668.36" y2="220.78" gradientUnits="userSpaceOnUse" spreadMethod="pad">
          <stop offset="0" stop-color="rgb(203,206,208)" stop-opacity="1"/>
          <stop offset="1" stop-color="rgb(132,131,139)" stop-opacity="1"/>
        </linearGradient>
        <linearGradient id="import.12.linear1.1" x1="276.19" x2="645.05" y1="529.4" y2="153.01" gradientUnits="userSpaceOnUse" spreadMethod="pad">
          <stop offset="0" stop-color="rgb(39,109,195)" stop-opacity="1"/>
          <stop offset="1" stop-color="rgb(22,92,170)" stop-opacity="1"/>
        </linearGradient>
        <linearGradient id="gridSVG.gradientFill.1.1" x1="0.5" x2="0.5" y1="0" y2="1" gradientUnits="objectBoundingBox" spreadMethod="pad">
          <stop offset="0" stop-color="rgb(0,0,4)" stop-opacity="1"/>
          <stop offset="0.11" stop-color="rgb(24,15,62)" stop-opacity="1"/>
          <stop offset="0.22" stop-color="rgb(69,16,119)" stop-opacity="1"/>
          <stop offset="0.33" stop-color="rgb(114,31,129)" stop-opacity="1"/>
          <stop offset="0.44" stop-color="rgb(159,47,127)" stop-opacity="1"/>
          <stop offset="0.56" stop-color="rgb(205,64,113)" stop-opacity="1"/>
          <stop offset="0.67" stop-color="rgb(241,96,93)" stop-opacity="1"/>
          <stop offset="0.78" stop-color="rgb(253,149,103)" stop-opacity="1"/>
          <stop offset="0.89" stop-color="rgb(254,201,141)" stop-opacity="1"/>
          <stop offset="1" stop-color="rgb(252,253,191)" stop-opacity="1"/>
        </linearGradient>
        <linearGradient id="greyscale.1" x1="0" x2="671" y1="671.23" y2="0" gradientUnits="userSpaceOnUse" spreadMethod="pad">
          <stop offset="0" stop-color="rgb(203,206,208)" stop-opacity="1"/>
          <stop offset="1" stop-color="rgb(132,131,139)" stop-opacity="1"/>
        </linearGradient>
      </defs>
      <g id="picture.shape.1">
        <defs>
          <clipPath id="picture.shape::picture.scale.1.clipPath">
            <rect x="0" y="151.21" width="671" height="519.93" fill="none" stroke="none"/>
          </clipPath>
        </defs>
        <g id="picture.shape::picture.scale.1" clip-path="url(#picture.shape::picture.scale.1.clipPath)">
          <g id="import.12.GRID.gTree.407.1">
            <g id="GRID.gTree.406.1">
              <g id="GRID.picComplexPath.400.1" stroke="rgb(255,255,255)" stroke-opacity="0" fill="url(#import.12.linear0.1)" fill-opacity="1">
                <g id="GRID.pathgrob.454.1">
                  <path id="GRID.pathgrob.454.1.1" d="M 334.99 220.78 L 334.99 220.78 L 323.64 220.91 L 312.36 221.32 L 301.14 221.99 L 289.98 222.94 L 278.86 224.16 L 267.79 225.65 L 256.76 227.42 L 245.78 229.46 L 234.85 231.79 L 223.97 234.4 L 213.17 237.28 L 202.45 240.44 L 191.82 243.88 L 181.31 247.6 L 170.92 251.58 L 160.68 255.83 L 150.61 260.34 L 140.73 265.11 L 131.06 270.11 L 121.62 275.35 L 112.42 280.81 L 103.5 286.49 L 94.86 292.37 L 86.54 298.43 L 78.54 304.67 L 70.88 311.07 L 63.58 317.62 L 56.65 324.3 L 50.1 331.1 L 43.94 338 L 38.18 345 L 32.83 352.08 L 27.89 359.23 L 23.37 366.44 L 19.26 373.7 L 15.57 381 L 12.3 388.34 L 9.44 395.71 L 6.99 403.11 L 4.96 410.54 L 3.34 418 L 2.12 425.49 L 1.31 433.02 L 0.89 440.6 L 0.84 444.57 L 0.84 444.57 L 1.04 452.18 L 1.64 459.73 L 2.65 467.24 L 4.06 474.72 L 5.88 482.16 L 8.11 489.58 L 10.75 496.96 L 13.81 504.32 L 17.28 511.64 L 21.17 518.92 L 25.48 526.16 L 30.2 533.34 L 35.34 540.46 L 40.89 547.5 L 46.84 554.45 L 53.18 561.31 L 59.92 568.05 L 67.03 574.67 L 74.5 581.15 L 82.32 587.47 L 90.48 593.63 L 98.96 599.61 L 107.73 605.39 L 116.79 610.97 L 126.11 616.33 L 135.66 621.46 L 145.44 626.35 L 155.41 630.99 L 165.56 635.37 L 175.87 639.5 L 186.32 643.35 L 196.89 646.94 L 207.57 650.25 L 218.33 653.28 L 229.17 656.03 L 240.07 658.5 L 251.03 660.69 L 262.03 662.6 L 273.09 664.24 L 284.18 665.6 L 295.32 666.69 L 306.5 667.51 L 317.75 668.05 L 329.06 668.33 L 334.99 668.36 L 334.99 668.36 L 346.35 668.23 L 357.63 667.82 L 368.84 667.15 L 380.01 666.2 L 391.12 664.99 L 402.19 663.49 L 413.22 661.72 L 424.21 659.68 L 435.14 657.35 L 446.01 654.75 L 456.82 651.86 L 467.54 648.7 L 478.17 645.26 L 488.68 641.54 L 499.07 637.56 L 509.3 633.31 L 519.37 628.8 L 529.25 624.04 L 538.93 619.03 L 548.37 613.79 L 557.56 608.33 L 566.49 602.65 L 575.12 596.77 L 583.45 590.71 L 591.45 584.47 L 599.11 578.07 L 606.41 571.52 L 613.34 564.84 L 619.89 558.04 L 626.05 551.14 L 631.8 544.14 L 637.16 537.06 L 642.09 529.91 L 646.62 522.7 L 650.73 515.44 L 654.42 508.14 L 657.69 500.8 L 660.55 493.43 L 662.99 486.03 L 665.03 478.6 L 666.65 471.14 L 667.87 463.65 L 668.68 456.12 L 669.09 448.54 L 669.15 444.57 L 669.15 444.57 L 668.95 436.97 L 668.34 429.41 L 667.33 421.9 L 665.92 414.42 L 664.1 406.98 L 661.87 399.56 L 659.23 392.18 L 656.18 384.82 L 652.7 377.5 L 648.81 370.22 L 644.51 362.98 L 639.78 355.8 L 634.65 348.68 L 629.1 341.64 L 623.15 334.69 L 616.8 327.83 L 610.07 321.09 L 602.96 314.47 L 595.49 307.99 L 587.66 301.67 L 579.5 295.51 L 571.03 289.53 L 562.25 283.75 L 553.2 278.17 L 543.88 272.81 L 534.32 267.69 L 524.55 262.8 L 514.57 258.15 L 504.42 253.77 L 494.11 249.64 L 483.66 245.79 L 473.09 242.2 L 462.42 238.9 L 451.66 235.87 L 440.82 233.11 L 429.92 230.64 L 418.96 228.45 L 407.95 226.54 L 396.9 224.9 L 385.81 223.54 L 374.67 222.45 L 363.48 221.64 L 352.24 221.09 L 340.92 220.82 L 334.99 220.78 Z M 386.14 580.87 L 386.14 580.87 L 376.17 580.74 L 366.27 580.37 L 356.43 579.76 L 346.65 578.89 L 336.91 577.78 L 327.21 576.41 L 317.56 574.79 L 307.96 572.91 L 298.42 570.78 L 288.96 568.4 L 279.6 565.76 L 270.34 562.86 L 261.2 559.73 L 252.22 556.34 L 243.42 552.73 L 234.81 548.88 L 226.42 544.82 L 218.28 540.55 L 210.41 536.08 L 202.84 531.43 L 195.58 526.61 L 188.65 521.63 L 182.08 516.51 L 175.88 511.26 L 170.07 505.91 L 164.65 500.45 L 159.64 494.91 L 155.04 489.3 L 150.87 483.63 L 147.11 477.91 L 143.78 472.14 L 140.87 466.34 L 138.39 460.52 L 136.33 454.66 L 134.68 448.78 L 133.44 442.87 L 132.62 436.93 L 132.21 430.95 L 132.16 427.87 L 132.16 427.87 L 132.36 421.87 L 132.97 415.91 L 134 409.98 L 135.43 404.09 L 137.28 398.22 L 139.55 392.38 L 142.24 386.56 L 145.36 380.78 L 148.9 375.04 L 152.86 369.34 L 157.24 363.69 L 162.04 358.12 L 167.25 352.62 L 172.87 347.21 L 178.87 341.9 L 185.25 336.72 L 192 331.67 L 199.09 326.76 L 206.51 322.02 L 214.23 317.46 L 222.24 313.09 L 230.5 308.91 L 239 304.96 L 247.7 301.22 L 256.6 297.72 L 265.66 294.46 L 274.85 291.44 L 284.17 288.67 L 293.58 286.15 L 303.08 283.89 L 312.65 281.88 L 322.28 280.13 L 331.95 278.64 L 341.67 277.39 L 351.43 276.4 L 361.24 275.66 L 371.11 275.16 L 381.04 274.91 L 386.14 274.88 L 386.14 274.88 L 395.98 274.96 L 405.71 275.22 L 415.34 275.64 L 424.9 276.25 L 434.38 277.05 L 443.78 278.04 L 453.12 279.23 L 462.37 280.63 L 471.54 282.25 L 480.62 284.08 L 489.58 286.14 L 498.42 288.43 L 507.12 290.95 L 515.66 293.71 L 524.01 296.7 L 532.17 299.93 L 540.1 303.4 L 547.79 307.1 L 555.22 311.02 L 562.37 315.17 L 569.21 319.54 L 575.74 324.11 L 581.93 328.9 L 587.77 333.88 L 593.25 339.04 L 598.36 344.39 L 603.1 349.91 L 607.45 355.59 L 611.41 361.43 L 614.98 367.43 L 618.17 373.57 L 620.96 379.85 L 623.37 386.28 L 625.4 392.86 L 627.05 399.58 L 628.32 406.45 L 629.22 413.48 L 629.76 420.69 L 629.93 427.87 L 629.93 427.87 L 629.75 435.26 L 629.2 442.46 L 628.29 449.49 L 627 456.36 L 625.35 463.07 L 623.31 469.64 L 620.89 476.06 L 618.08 482.34 L 614.89 488.48 L 611.3 494.47 L 607.33 500.3 L 602.97 505.98 L 598.22 511.5 L 593.1 516.84 L 587.61 522 L 581.76 526.97 L 575.56 531.75 L 569.02 536.32 L 562.17 540.69 L 555.02 544.83 L 547.58 548.75 L 539.88 552.44 L 531.94 555.9 L 523.78 559.12 L 515.42 562.11 L 506.88 564.86 L 498.17 567.38 L 489.33 569.66 L 480.36 571.72 L 471.29 573.54 L 462.12 575.15 L 452.86 576.55 L 443.52 577.74 L 434.11 578.72 L 424.63 579.51 L 415.07 580.12 L 405.44 580.54 L 395.7 580.79 L 386.14 580.87 Z" fill-rule="evenodd" stroke="rgb(255,255,255)" stroke-opacity="0"/>
                </g>
                <g id="GRID.polyline.455.1">
                  <polyline id="GRID.polyline.455.1.1" points="334.99,220.78 334.99,220.78 323.64,220.91 312.36,221.32 301.14,221.99 289.98,222.94 278.86,224.16 267.79,225.65 256.76,227.42 245.78,229.46 234.85,231.79 223.97,234.4 213.17,237.28 202.45,240.44 191.82,243.88 181.31,247.6 170.92,251.58 160.68,255.83 150.61,260.34 140.73,265.11 131.06,270.11 121.62,275.35 112.42,280.81 103.5,286.49 94.86,292.37 86.54,298.43 78.54,304.67 70.88,311.07 63.58,317.62 56.65,324.3 50.1,331.1 43.94,338 38.18,345 32.83,352.08 27.89,359.23 23.37,366.44 19.26,373.7 15.57,381 12.3,388.34 9.44,395.71 6.99,403.11 4.96,410.54 3.34,418 2.12,425.49 1.31,433.02 0.89,440.6 0.84,444.57 0.84,444.57 1.04,452.18 1.64,459.73 2.65,467.24 4.06,474.72 5.88,482.16 8.11,489.58 10.75,496.96 13.81,504.32 17.28,511.64 21.17,518.92 25.48,526.16 30.2,533.34 35.34,540.46 40.89,547.5 46.84,554.45 53.18,561.31 59.92,568.05 67.03,574.67 74.5,581.15 82.32,587.47 90.48,593.63 98.96,599.61 107.73,605.39 116.79,610.97 126.11,616.33 135.66,621.46 145.44,626.35 155.41,630.99 165.56,635.37 175.87,639.5 186.32,643.35 196.89,646.94 207.57,650.25 218.33,653.28 229.17,656.03 240.07,658.5 251.03,660.69 262.03,662.6 273.09,664.24 284.18,665.6 295.32,666.69 306.5,667.51 317.75,668.05 329.06,668.33 334.99,668.36 334.99,668.36 346.35,668.23 357.63,667.82 368.84,667.15 380.01,666.2 391.12,664.99 402.19,663.49 413.22,661.72 424.21,659.68 435.14,657.35 446.01,654.75 456.82,651.86 467.54,648.7 478.17,645.26 488.68,641.54 499.07,637.56 509.3,633.31 519.37,628.8 529.25,624.04 538.93,619.03 548.37,613.79 557.56,608.33 566.49,602.65 575.12,596.77 583.45,590.71 591.45,584.47 599.11,578.07 606.41,571.52 613.34,564.84 619.89,558.04 626.05,551.14 631.8,544.14 637.16,537.06 642.09,529.91 646.62,522.7 650.73,515.44 654.42,508.14 657.69,500.8 660.55,493.43 662.99,486.03 665.03,478.6 666.65,471.14 667.87,463.65 668.68,456.12 669.09,448.54 669.15,444.57 669.15,444.57 668.95,436.97 668.34,429.41 667.33,421.9 665.92,414.42 664.1,406.98 661.87,399.56 659.23,392.18 656.18,384.82 652.7,377.5 648.81,370.22 644.51,362.98 639.78,355.8 634.65,348.68 629.1,341.64 623.15,334.69 616.8,327.83 610.07,321.09 602.96,314.47 595.49,307.99 587.66,301.67 579.5,295.51 571.03,289.53 562.25,283.75 553.2,278.17 543.88,272.81 534.32,267.69 524.55,262.8 514.57,258.15 504.42,253.77 494.11,249.64 483.66,245.79 473.09,242.2 462.42,238.9 451.66,235.87 440.82,233.11 429.92,230.64 418.96,228.45 407.95,226.54 396.9,224.9 385.81,223.54 374.67,222.45 363.48,221.64 352.24,221.09 340.92,220.82 334.99,220.78 334.99,220.78" fill="none" fill-opacity="0"/>
                  <polyline id="GRID.polyline.455.1.2" points="386.14,580.87 386.14,580.87 376.17,580.74 366.27,580.37 356.43,579.76 346.65,578.89 336.91,577.78 327.21,576.41 317.56,574.79 307.96,572.91 298.42,570.78 288.96,568.4 279.6,565.76 270.34,562.86 261.2,559.73 252.22,556.34 243.42,552.73 234.81,548.88 226.42,544.82 218.28,540.55 210.41,536.08 202.84,531.43 195.58,526.61 188.65,521.63 182.08,516.51 175.88,511.26 170.07,505.91 164.65,500.45 159.64,494.91 155.04,489.3 150.87,483.63 147.11,477.91 143.78,472.14 140.87,466.34 138.39,460.52 136.33,454.66 134.68,448.78 133.44,442.87 132.62,436.93 132.21,430.95 132.16,427.87 132.16,427.87 132.36,421.87 132.97,415.91 134,409.98 135.43,404.09 137.28,398.22 139.55,392.38 142.24,386.56 145.36,380.78 148.9,375.04 152.86,369.34 157.24,363.69 162.04,358.12 167.25,352.62 172.87,347.21 178.87,341.9 185.25,336.72 192,331.67 199.09,326.76 206.51,322.02 214.23,317.46 222.24,313.09 230.5,308.91 239,304.96 247.7,301.22 256.6,297.72 265.66,294.46 274.85,291.44 284.17,288.67 293.58,286.15 303.08,283.89 312.65,281.88 322.28,280.13 331.95,278.64 341.67,277.39 351.43,276.4 361.24,275.66 371.11,275.16 381.04,274.91 386.14,274.88 386.14,274.88 395.98,274.96 405.71,275.22 415.34,275.64 424.9,276.25 434.38,277.05 443.78,278.04 453.12,279.23 462.37,280.63 471.54,282.25 480.62,284.08 489.58,286.14 498.42,288.43 507.12,290.95 515.66,293.71 524.01,296.7 532.17,299.93 540.1,303.4 547.79,307.1 555.22,311.02 562.37,315.17 569.21,319.54 575.74,324.11 581.93,328.9 587.77,333.88 593.25,339.04 598.36,344.39 603.1,349.91 607.45,355.59 611.41,361.43 614.98,367.43 618.17,373.57 620.96,379.85 623.37,386.28 625.4,392.86 627.05,399.58 628.32,406.45 629.22,413.48 629.76,420.69 629.93,427.87 629.93,427.87 629.75,435.26 629.2,442.46 628.29,449.49 627,456.36 625.35,463.07 623.31,469.64 620.89,476.06 618.08,482.34 614.89,488.48 611.3,494.47 607.33,500.3 602.97,505.98 598.22,511.5 593.1,516.84 587.61,522 581.76,526.97 575.56,531.75 569.02,536.32 562.17,540.69 555.02,544.83 547.58,548.75 539.88,552.44 531.94,555.9 523.78,559.12 515.42,562.11 506.88,564.86 498.17,567.38 489.33,569.66 480.36,571.72 471.29,573.54 462.12,575.15 452.86,576.55 443.52,577.74 434.11,578.72 424.63,579.51 415.07,580.12 405.44,580.54 395.7,580.79 386.14,580.87 386.14,580.87" fill="none" fill-opacity="0"/>
                </g>
              </g>
              <g id="GRID.picComplexPath.403.1" stroke="rgb(255,255,255)" stroke-opacity="0" fill="url(#gridSVG.gradientFill.1.1)" fill-opacity="1">
                <g id="GRID.pathgrob.456.1">
                  <path id="GRID.pathgrob.456.1.1" d="M 509.74 321.74 L 509.74 321.74 L 510.08 321.64 L 511.09 321.32 L 512.73 320.8 L 514.96 320.08 L 517.69 319.17 L 520.82 318.09 L 524.23 316.89 L 527.75 315.6 L 531.27 314.25 L 534.64 312.89 L 537.79 311.54 L 540.66 310.21 L 541.71 309.69 L 541.71 309.69 L 542.99 309.03 L 544.48 308.21 L 546.17 307.21 L 548.03 306.05 L 549.98 304.75 L 551.95 303.34 L 553.85 301.86 L 555.62 300.36 L 557.23 298.83 L 557.93 298.11 L 557.93 298.11 L 559.63 296.19 L 561.15 294.24 L 562.5 292.32 L 563.62 290.57 L 564.47 289.13 L 565.02 288.1 L 565.3 287.55 L 565.35 287.45 L 645.05 153.06 L 516.23 153.01 L 455.98 266.13 L 455.98 266.13 L 455.77 266.49 L 455.15 267.54 L 454.13 269.21 L 452.75 271.43 L 451.06 274.09 L 449.11 277.07 L 446.99 280.2 L 444.78 283.32 L 442.58 286.27 L 440.46 288.93 L 438.46 291.19 L 436.63 292.99 L 436.06 293.47 L 436.06 293.47 L 434.16 294.99 L 432.38 296.34 L 430.67 297.51 L 428.97 298.51 L 427.28 299.29 L 425.58 299.86 L 423.87 300.22 L 422.08 300.39 L 420.77 300.42 L 420.77 300.42 L 419.33 300.42 L 417.14 300.42 L 414.28 300.42 L 410.91 300.42 L 407.19 300.42 L 403.37 300.42 L 399.68 300.42 L 396.36 300.42 L 393.61 300.42 L 391.59 300.42 L 390.42 300.42 L 390.16 300.42 L 390.18 153.09 L 276.19 153.04 L 276.19 529.4 L 505.1 529.4 L 505.1 529.4 L 505.46 529.39 L 506.52 529.34 L 508.24 529.21 L 510.58 528.99 L 513.52 528.63 L 517.01 528.1 L 521.01 527.37 L 525.47 526.41 L 530.35 525.18 L 535.57 523.65 L 541.07 521.79 L 546.79 519.58 L 552.65 516.99 L 558.56 514.01 L 564.46 510.6 L 570.27 506.77 L 575.9 502.49 L 581.29 497.76 L 586.36 492.58 L 591.06 486.94 L 595.32 480.83 L 599.1 474.24 L 602.34 467.18 L 605.02 459.62 L 607.09 451.53 L 608.51 442.9 L 609.26 433.68 L 609.37 428.32 L 609.37 428.32 L 609.03 418.75 L 608.02 409.76 L 606.39 401.31 L 604.16 393.35 L 601.36 385.87 L 598.04 378.85 L 594.23 372.28 L 589.98 366.15 L 585.34 360.46 L 580.37 355.21 L 575.12 350.39 L 569.68 346.01 L 564.1 342.06 L 558.45 338.53 L 552.83 335.4 L 547.29 332.67 L 541.91 330.32 L 536.77 328.32 L 531.92 326.66 L 527.42 325.29 L 523.34 324.2 L 519.71 323.36 L 516.59 322.73 L 514.01 322.29 L 512.01 322 L 510.62 321.83 L 509.87 321.75 L 509.74 321.74 Z M 460.15 447.76 L 391.14 447.81 L 391.11 383.81 L 460.15 383.83 L 460.15 383.83 L 460.46 383.84 L 461.36 383.9 L 462.8 384.05 L 464.71 384.36 L 467.04 384.87 L 469.71 385.63 L 472.61 386.7 L 475.65 388.12 L 478.7 389.91 L 481.66 392.11 L 484.41 394.74 L 486.86 397.79 L 488.92 401.29 L 490.51 405.24 L 491.59 409.68 L 492.1 414.65 L 492.13 416.39 L 492.13 416.39 L 491.85 421.38 L 491.04 425.84 L 489.74 429.8 L 487.99 433.31 L 485.86 436.38 L 483.41 439.03 L 480.72 441.27 L 477.87 443.12 L 474.97 444.6 L 472.1 445.73 L 469.37 446.57 L 466.87 447.14 L 464.67 447.49 L 462.85 447.69 L 461.46 447.76 L 460.55 447.77 L 460.16 447.76 L 460.15 447.76 Z" fill-rule="evenodd" stroke="rgb(255,255,255)" stroke-opacity="0"/>
                </g>
                <g id="GRID.polyline.457.1">
                  <polyline id="GRID.polyline.457.1.1" points="509.74,321.74 509.74,321.74 510.08,321.64 511.09,321.32 512.73,320.8 514.96,320.08 517.69,319.17 520.82,318.09 524.23,316.89 527.75,315.6 531.27,314.25 534.64,312.89 537.79,311.54 540.66,310.21 541.71,309.69 541.71,309.69 542.99,309.03 544.48,308.21 546.17,307.21 548.03,306.05 549.98,304.75 551.95,303.34 553.85,301.86 555.62,300.36 557.23,298.83 557.93,298.11 557.93,298.11 559.63,296.19 561.15,294.24 562.5,292.32 563.62,290.57 564.47,289.13 565.02,288.1 565.3,287.55 565.35,287.45 645.05,153.06 516.23,153.01 455.98,266.13 455.98,266.13 455.77,266.49 455.15,267.54 454.13,269.21 452.75,271.43 451.06,274.09 449.11,277.07 446.99,280.2 444.78,283.32 442.58,286.27 440.46,288.93 438.46,291.19 436.63,292.99 436.06,293.47 436.06,293.47 434.16,294.99 432.38,296.34 430.67,297.51 428.97,298.51 427.28,299.29 425.58,299.86 423.87,300.22 422.08,300.39 420.77,300.42 420.77,300.42 419.33,300.42 417.14,300.42 414.28,300.42 410.91,300.42 407.19,300.42 403.37,300.42 399.68,300.42 396.36,300.42 393.61,300.42 391.59,300.42 390.42,300.42 390.16,300.42 390.18,153.09 276.19,153.04 276.19,529.4 505.1,529.4 505.1,529.4 505.46,529.39 506.52,529.34 508.24,529.21 510.58,528.99 513.52,528.63 517.01,528.1 521.01,527.37 525.47,526.41 530.35,525.18 535.57,523.65 541.07,521.79 546.79,519.58 552.65,516.99 558.56,514.01 564.46,510.6 570.27,506.77 575.9,502.49 581.29,497.76 586.36,492.58 591.06,486.94 595.32,480.83 599.1,474.24 602.34,467.18 605.02,459.62 607.09,451.53 608.51,442.9 609.26,433.68 609.37,428.32 609.37,428.32 609.03,418.75 608.02,409.76 606.39,401.31 604.16,393.35 601.36,385.87 598.04,378.85 594.23,372.28 589.98,366.15 585.34,360.46 580.37,355.21 575.12,350.39 569.68,346.01 564.1,342.06 558.45,338.53 552.83,335.4 547.29,332.67 541.91,330.32 536.77,328.32 531.92,326.66 527.42,325.29 523.34,324.2 519.71,323.36 516.59,322.73 514.01,322.29 512.01,322 510.62,321.83 509.87,321.75 509.74,321.74 509.74,321.74" fill="none" fill-opacity="0"/>
                  <polyline id="GRID.polyline.457.1.2" points="460.15,447.76 391.14,447.81 391.11,383.81 460.15,383.83 460.15,383.83 460.46,383.84 461.36,383.9 462.8,384.05 464.71,384.36 467.04,384.87 469.71,385.63 472.61,386.7 475.65,388.12 478.7,389.91 481.66,392.11 484.41,394.74 486.86,397.79 488.92,401.29 490.51,405.24 491.59,409.68 492.1,414.65 492.13,416.39 492.13,416.39 491.85,421.38 491.04,425.84 489.74,429.8 487.99,433.31 485.86,436.38 483.41,439.03 480.72,441.27 477.87,443.12 474.97,444.6 472.1,445.73 469.37,446.57 466.87,447.14 464.67,447.49 462.85,447.69 461.46,447.76 460.55,447.77 460.16,447.76 460.15,447.76 460.15,447.76" fill="none" fill-opacity="0"/>
                </g>
              </g>
            </g>
          </g>
        </g>
      </g>
      <g id="picture.shape.2">
        <defs>
          <clipPath id="picture.shape::picture.scale.2.clipPath">
            <rect x="0" y="0.12" width="671" height="671" fill="none" stroke="none"/>
          </clipPath>
        </defs>
        <g id="picture.shape::picture.scale.2" clip-path="url(#picture.shape::picture.scale.2.clipPath)">
          <g id="import.13.label.1">
            <g id="GRID.gTree.437.1">
              <g id="GRID.gTree.436.1" fill="rgb(143,143,150)" fill-opacity="1">
                <g id="GRID.picComplexPath.412.1" stroke="rgb(255,255,255)" stroke-opacity="0">
                  <g id="GRID.pathgrob.458.1" fill="url(#greyscale.1)" fill-opacity="1">
                    <path id="GRID.pathgrob.458.1.1" d="M 37.24 50.28 L 15.5 50.28 L 15.5 132.01 L 63.8 132.01 L 63.8 114.29 L 37.24 114.29 L 37.24 98.69 L 61.72 98.69 L 61.72 80.96 L 37.24 80.96 Z" fill-rule="nonzero" stroke="rgb(255,255,255)" stroke-opacity="0"/>
                  </g>
                  <g id="GRID.polyline.459.1">
                    <polyline id="GRID.polyline.459.1.1" points="37.24,50.28 15.5,50.28 15.5,132.01 63.8,132.01 63.8,114.29 37.24,114.29 37.24,98.69 61.72,98.69 61.72,80.96 37.24,80.96 37.24,50.28" fill="none" fill-opacity="0"/>
                  </g>
                </g>
                <g id="GRID.picComplexPath.415.1" stroke="rgb(255,255,255)" stroke-opacity="0">
                  <g id="GRID.pathgrob.460.1" fill="url(#greyscale.1)" fill-opacity="1">
                    <path id="GRID.pathgrob.460.1.1" d="M 153.44 91.26 L 153.44 91.26 L 153.35 87.6 L 153.07 83.99 L 152.57 80.41 L 151.85 76.87 L 150.9 73.45 L 149.74 70.22 L 148.41 67.26 L 146.93 64.61 L 145.32 62.27 L 143.6 60.2 L 143.31 59.89 L 143.31 59.89 L 141.34 57.99 L 139.12 56.24 L 136.59 54.62 L 133.76 53.16 L 130.65 51.9 L 127.35 50.86 L 123.93 50.07 L 120.47 49.54 L 116.98 49.24 L 113.69 49.16 L 113.69 49.16 L 110.19 49.26 L 106.74 49.57 L 103.31 50.13 L 99.92 50.94 L 96.65 52 L 93.57 53.3 L 90.75 54.78 L 88.24 56.42 L 86.02 58.2 L 84.21 59.95 L 84.21 59.95 L 82.44 62 L 80.8 64.3 L 79.28 66.91 L 77.9 69.82 L 76.7 73.01 L 75.71 76.41 L 74.94 79.93 L 74.4 83.5 L 74.08 87.1 L 73.96 90.74 L 73.95 91.36 L 73.95 91.36 L 74.05 95 L 74.33 98.58 L 74.83 102.13 L 75.57 105.65 L 76.53 109.05 L 77.69 112.27 L 79.04 115.22 L 80.54 117.86 L 82.16 120.2 L 83.91 122.27 L 84.15 122.53 L 84.15 122.53 L 86.13 124.43 L 88.36 126.19 L 90.89 127.81 L 93.74 129.28 L 96.84 130.54 L 100.14 131.58 L 103.56 132.37 L 107.02 132.91 L 110.49 133.21 L 113.81 133.3 L 113.81 133.3 L 117.36 133.2 L 120.84 132.89 L 124.31 132.34 L 127.71 131.53 L 131 130.48 L 134.09 129.2 L 136.89 127.74 L 139.39 126.11 L 141.58 124.35 L 143.37 122.61 L 143.37 122.61 L 145.11 120.58 L 146.73 118.29 L 148.22 115.69 L 149.57 112.78 L 150.75 109.59 L 151.73 106.2 L 152.48 102.67 L 153.01 99.09 L 153.32 95.48 L 153.44 91.82 L 153.44 91.26 Z M 97.21 91.26 L 97.21 91.26 L 97.31 87.9 L 97.61 84.76 L 98.13 81.79 L 98.88 79.02 L 99.88 76.48 L 101.13 74.22 L 102.6 72.26 L 104.27 70.64 L 106.12 69.37 L 108.11 68.45 L 110.23 67.86 L 112.49 67.58 L 113.69 67.54 L 113.69 67.54 L 115.68 67.64 L 117.62 67.94 L 119.53 68.47 L 121.34 69.23 L 122.98 70.19 L 124.39 71.31 L 125.56 72.56 L 126.13 73.31 L 126.13 73.31 L 127.05 74.82 L 127.89 76.63 L 128.63 78.79 L 129.25 81.26 L 129.71 83.94 L 130.01 86.72 L 130.16 89.55 L 130.18 91.26 L 130.18 91.26 L 130.12 94.14 L 129.91 96.96 L 129.54 99.71 L 129 102.33 L 128.33 104.69 L 127.54 106.73 L 126.66 108.43 L 126.06 109.34 L 126.06 109.34 L 124.99 110.68 L 123.7 111.9 L 122.2 112.97 L 120.49 113.86 L 118.65 114.53 L 116.75 114.96 L 114.83 115.16 L 113.81 115.18 L 113.81 115.18 L 111.47 115.04 L 109.27 114.61 L 107.2 113.86 L 105.27 112.77 L 103.5 111.33 L 101.91 109.53 L 100.54 107.41 L 99.4 104.99 L 98.51 102.33 L 97.86 99.45 L 97.44 96.39 L 97.24 93.13 L 97.21 91.26 Z" fill-rule="nonzero" stroke="rgb(255,255,255)" stroke-opacity="0"/>
                  </g>
                  <g id="GRID.polyline.461.1">
                    <polyline id="GRID.polyline.461.1.1" points="153.44,91.26 153.44,91.26 153.35,87.6 153.07,83.99 152.57,80.41 151.85,76.87 150.9,73.45 149.74,70.22 148.41,67.26 146.93,64.61 145.32,62.27 143.6,60.2 143.31,59.89 143.31,59.89 141.34,57.99 139.12,56.24 136.59,54.62 133.76,53.16 130.65,51.9 127.35,50.86 123.93,50.07 120.47,49.54 116.98,49.24 113.69,49.16 113.69,49.16 110.19,49.26 106.74,49.57 103.31,50.13 99.92,50.94 96.65,52 93.57,53.3 90.75,54.78 88.24,56.42 86.02,58.2 84.21,59.95 84.21,59.95 82.44,62 80.8,64.3 79.28,66.91 77.9,69.82 76.7,73.01 75.71,76.41 74.94,79.93 74.4,83.5 74.08,87.1 73.96,90.74 73.95,91.36 73.95,91.36 74.05,95 74.33,98.58 74.83,102.13 75.57,105.65 76.53,109.05 77.69,112.27 79.04,115.22 80.54,117.86 82.16,120.2 83.91,122.27 84.15,122.53 84.15,122.53 86.13,124.43 88.36,126.19 90.89,127.81 93.74,129.28 96.84,130.54 100.14,131.58 103.56,132.37 107.02,132.91 110.49,133.21 113.81,133.3 113.81,133.3 117.36,133.2 120.84,132.89 124.31,132.34 127.71,131.53 131,130.48 134.09,129.2 136.89,127.74 139.39,126.11 141.58,124.35 143.37,122.61 143.37,122.61 145.11,120.58 146.73,118.29 148.22,115.69 149.57,112.78 150.75,109.59 151.73,106.2 152.48,102.67 153.01,99.09 153.32,95.48 153.44,91.82 153.44,91.26 153.44,91.26" fill="none" fill-opacity="0"/>
                    <polyline id="GRID.polyline.461.1.2" points="97.21,91.26 97.21,91.26 97.31,87.9 97.61,84.76 98.13,81.79 98.88,79.02 99.88,76.48 101.13,74.22 102.6,72.26 104.27,70.64 106.12,69.37 108.11,68.45 110.23,67.86 112.49,67.58 113.69,67.54 113.69,67.54 115.68,67.64 117.62,67.94 119.53,68.47 121.34,69.23 122.98,70.19 124.39,71.31 125.56,72.56 126.13,73.31 126.13,73.31 127.05,74.82 127.89,76.63 128.63,78.79 129.25,81.26 129.71,83.94 130.01,86.72 130.16,89.55 130.18,91.26 130.18,91.26 130.12,94.14 129.91,96.96 129.54,99.71 129,102.33 128.33,104.69 127.54,106.73 126.66,108.43 126.06,109.34 126.06,109.34 124.99,110.68 123.7,111.9 122.2,112.97 120.49,113.86 118.65,114.53 116.75,114.96 114.83,115.16 113.81,115.18 113.81,115.18 111.47,115.04 109.27,114.61 107.2,113.86 105.27,112.77 103.5,111.33 101.91,109.53 100.54,107.41 99.4,104.99 98.51,102.33 97.86,99.45 97.44,96.39 97.24,93.13 97.21,91.26 97.21,91.26" fill="none" fill-opacity="0"/>
                  </g>
                </g>
                <g id="GRID.picComplexPath.418.1" stroke="rgb(255,255,255)" stroke-opacity="0">
                  <g id="GRID.pathgrob.462.1" fill="url(#greyscale.1)" fill-opacity="1">
                    <path id="GRID.pathgrob.462.1.1" d="M 189.92 80.03 L 189.92 50.28 L 167.85 50.28 L 167.85 132.01 L 194.62 132.01 L 194.62 132.01 L 198.75 131.9 L 202.65 131.58 L 206.35 131 L 209.85 130.18 L 213.13 129.08 L 216.15 127.71 L 218.87 126.07 L 221.25 124.18 L 223.28 122.06 L 224.93 119.75 L 226.2 117.27 L 227.11 114.63 L 227.67 111.86 L 227.93 108.93 L 227.94 107.86 L 227.94 107.86 L 227.82 105.3 L 227.42 102.78 L 226.72 100.26 L 225.7 97.77 L 224.36 95.35 L 222.73 93.07 L 220.86 90.97 L 218.79 89.08 L 216.54 87.41 L 214.11 85.92 L 214.07 85.89 L 237.89 50.28 L 212.84 50.28 L 195.51 80.03 Z M 189.92 96.63 L 194.06 96.63 L 194.06 96.63 L 196.1 96.72 L 197.98 97.02 L 199.72 97.54 L 201.29 98.31 L 202.66 99.3 L 203.77 100.52 L 204.62 101.92 L 205.2 103.46 L 205.53 105.14 L 205.62 106.86 L 205.62 106.86 L 205.51 108.39 L 205.16 109.81 L 204.54 111.11 L 203.64 112.28 L 202.46 113.28 L 201.03 114.09 L 199.4 114.68 L 197.6 115.07 L 195.65 115.27 L 194.29 115.31 L 189.92 115.31 Z" fill-rule="nonzero" stroke="rgb(255,255,255)" stroke-opacity="0"/>
                  </g>
                  <g id="GRID.polyline.463.1">
                    <polyline id="GRID.polyline.463.1.1" points="189.92,80.03 189.92,50.28 167.85,50.28 167.85,132.01 194.62,132.01 194.62,132.01 198.75,131.9 202.65,131.58 206.35,131 209.85,130.18 213.13,129.08 216.15,127.71 218.87,126.07 221.25,124.18 223.28,122.06 224.93,119.75 226.2,117.27 227.11,114.63 227.67,111.86 227.93,108.93 227.94,107.86 227.94,107.86 227.82,105.3 227.42,102.78 226.72,100.26 225.7,97.77 224.36,95.35 222.73,93.07 220.86,90.97 218.79,89.08 216.54,87.41 214.11,85.92 214.07,85.89 237.89,50.28 212.84,50.28 195.51,80.03 189.92,80.03" fill="none" fill-opacity="0"/>
                    <polyline id="GRID.polyline.463.1.2" points="189.92,96.63 194.06,96.63 194.06,96.63 196.1,96.72 197.98,97.02 199.72,97.54 201.29,98.31 202.66,99.3 203.77,100.52 204.62,101.92 205.2,103.46 205.53,105.14 205.62,106.86 205.62,106.86 205.51,108.39 205.16,109.81 204.54,111.11 203.64,112.28 202.46,113.28 201.03,114.09 199.4,114.68 197.6,115.07 195.65,115.27 194.29,115.31 189.92,115.31 189.92,96.63" fill="none" fill-opacity="0"/>
                  </g>
                </g>
                <g id="GRID.picComplexPath.421.1" stroke="rgb(255,255,255)" stroke-opacity="0">
                  <g id="GRID.pathgrob.464.1" fill="url(#greyscale.1)" fill-opacity="1">
                    <path id="GRID.pathgrob.464.1.1" d="M 333.29 50.28 L 307.18 50.28 L 299.36 85.89 L 299.36 85.89 L 299.14 86.82 L 298.85 88.16 L 298.51 89.89 L 298.12 91.89 L 297.72 94.04 L 297.59 94.78 L 297.59 94.78 L 297.23 96.81 L 296.88 98.87 L 296.55 100.93 L 296.25 102.85 L 296.02 104.54 L 295.84 105.9 L 295.84 105.9 L 295.66 104.57 L 295.43 103 L 295.14 101.21 L 294.82 99.35 L 294.49 97.52 L 294.37 96.88 L 294.37 96.88 L 294.03 95.11 L 293.68 93.26 L 293.3 91.36 L 292.93 89.54 L 292.59 87.9 L 292.39 86.95 L 292.39 86.95 L 292.17 85.97 L 291.85 84.5 L 291.41 82.49 L 290.84 79.91 L 290.14 76.76 L 289.32 73.08 L 288.41 68.96 L 287.42 64.49 L 286.36 59.73 L 285.25 54.73 L 284.26 50.28 L 258.15 50.28 L 237.91 132.01 L 259.21 132.01 L 268.11 91.03 L 268.11 91.03 L 268.76 88.07 L 269.38 85.13 L 269.98 82.19 L 270.55 79.3 L 271.06 76.57 L 271.5 74.08 L 271.86 71.88 L 272.16 69.94 L 272.23 69.4 L 272.23 69.4 L 272.45 70.98 L 272.72 72.84 L 273.06 74.98 L 273.46 77.35 L 273.9 79.83 L 274.35 82.34 L 274.83 84.85 L 274.83 84.87 L 274.83 84.87 L 275.31 87.34 L 275.81 89.82 L 276.32 92.32 L 276.85 94.75 L 277.35 97 L 277.81 99 L 278.24 100.76 L 278.33 101.1 L 285.55 132.01 L 306.02 132.01 L 313 101.1 L 313 101.1 L 313.45 99.2 L 313.93 97.11 L 314.43 94.8 L 314.96 92.33 L 315.48 89.81 L 315.97 87.33 L 316.44 84.92 L 316.62 83.94 L 316.62 83.94 L 317.11 81.37 L 317.57 78.86 L 318 76.41 L 318.38 74.14 L 318.7 72.15 L 318.95 70.5 L 319.1 69.4 L 319.1 69.4 L 319.3 70.91 L 319.57 72.75 L 319.94 74.98 L 320.4 77.57 L 320.94 80.46 L 321.54 83.54 L 322.18 86.72 L 322.86 89.99 L 323.05 90.93 L 332.12 132.01 L 353.42 132.01 Z" fill-rule="nonzero" stroke="rgb(255,255,255)" stroke-opacity="0"/>
                  </g>
                  <g id="GRID.polyline.465.1">
                    <polyline id="GRID.polyline.465.1.1" points="333.29,50.28 307.18,50.28 299.36,85.89 299.36,85.89 299.14,86.82 298.85,88.16 298.51,89.89 298.12,91.89 297.72,94.04 297.59,94.78 297.59,94.78 297.23,96.81 296.88,98.87 296.55,100.93 296.25,102.85 296.02,104.54 295.84,105.9 295.84,105.9 295.66,104.57 295.43,103 295.14,101.21 294.82,99.35 294.49,97.52 294.37,96.88 294.37,96.88 294.03,95.11 293.68,93.26 293.3,91.36 292.93,89.54 292.59,87.9 292.39,86.95 292.39,86.95 292.17,85.97 291.85,84.5 291.41,82.49 290.84,79.91 290.14,76.76 289.32,73.08 288.41,68.96 287.42,64.49 286.36,59.73 285.25,54.73 284.26,50.28 258.15,50.28 237.91,132.01 259.21,132.01 268.11,91.03 268.11,91.03 268.76,88.07 269.38,85.13 269.98,82.19 270.55,79.3 271.06,76.57 271.5,74.08 271.86,71.88 272.16,69.94 272.23,69.4 272.23,69.4 272.45,70.98 272.72,72.84 273.06,74.98 273.46,77.35 273.9,79.83 274.35,82.34 274.83,84.85 274.83,84.87 274.83,84.87 275.31,87.34 275.81,89.82 276.32,92.32 276.85,94.75 277.35,97 277.81,99 278.24,100.76 278.33,101.1 285.55,132.01 306.02,132.01 313,101.1 313,101.1 313.45,99.2 313.93,97.11 314.43,94.8 314.96,92.33 315.48,89.81 315.97,87.33 316.44,84.92 316.62,83.94 316.62,83.94 317.11,81.37 317.57,78.86 318,76.41 318.38,74.14 318.7,72.15 318.95,70.5 319.1,69.4 319.1,69.4 319.3,70.91 319.57,72.75 319.94,74.98 320.4,77.57 320.94,80.46 321.54,83.54 322.18,86.72 322.86,89.99 323.05,90.93 332.12,132.01 353.42,132.01 333.29,50.28" fill="none" fill-opacity="0"/>
                  </g>
                </g>
                <g id="GRID.picComplexPath.424.1" stroke="rgb(255,255,255)" stroke-opacity="0">
                  <g id="GRID.pathgrob.466.1" fill="url(#greyscale.1)" fill-opacity="1">
                    <path id="GRID.pathgrob.466.1.1" d="M 413.65 50.28 L 409.63 65.59 L 383.07 65.59 L 378.93 50.28 L 354.67 50.28 L 381.34 132.34 L 410.8 132.34 L 437.8 50.28 Z M 405.04 83.71 L 401.52 97.13 L 401.52 97.13 L 401.13 98.56 L 400.69 100.23 L 400.18 102.16 L 399.65 104.24 L 399.11 106.35 L 398.59 108.45 L 398.53 108.69 L 398.53 108.69 L 397.99 110.9 L 397.48 113.03 L 397.03 115.03 L 396.65 116.75 L 396.37 118.11 L 396.22 118.89 L 396.22 118.89 L 396.01 117.79 L 395.73 116.36 L 395.36 114.59 L 394.92 112.6 L 394.46 110.52 L 394.22 109.48 L 394.22 109.48 L 393.88 108.02 L 393.44 106.19 L 392.89 103.96 L 392.23 101.31 L 391.46 98.29 L 390.61 95 L 389.71 91.52 L 388.77 87.92 L 387.79 84.18 L 387.67 83.71 Z" fill-rule="nonzero" stroke="rgb(255,255,255)" stroke-opacity="0"/>
                  </g>
                  <g id="GRID.polyline.467.1">
                    <polyline id="GRID.polyline.467.1.1" points="413.65,50.28 409.63,65.59 383.07,65.59 378.93,50.28 354.67,50.28 381.34,132.34 410.8,132.34 437.8,50.28 413.65,50.28" fill="none" fill-opacity="0"/>
                    <polyline id="GRID.polyline.467.1.2" points="405.04,83.71 401.52,97.13 401.52,97.13 401.13,98.56 400.69,100.23 400.18,102.16 399.65,104.24 399.11,106.35 398.59,108.45 398.53,108.69 398.53,108.69 397.99,110.9 397.48,113.03 397.03,115.03 396.65,116.75 396.37,118.11 396.22,118.89 396.22,118.89 396.01,117.79 395.73,116.36 395.36,114.59 394.92,112.6 394.46,110.52 394.22,109.48 394.22,109.48 393.88,108.02 393.44,106.19 392.89,103.96 392.23,101.31 391.46,98.29 390.61,95 389.71,91.52 388.77,87.92 387.79,84.18 387.67,83.71 405.04,83.71" fill="none" fill-opacity="0"/>
                  </g>
                </g>
                <g id="GRID.picComplexPath.427.1" stroke="rgb(255,255,255)" stroke-opacity="0">
                  <g id="GRID.pathgrob.468.1" fill="url(#greyscale.1)" fill-opacity="1">
                    <path id="GRID.pathgrob.468.1.1" d="M 468.39 80.03 L 468.39 50.28 L 446.32 50.28 L 446.32 132.01 L 473.09 132.01 L 473.09 132.01 L 477.21 131.9 L 481.12 131.58 L 484.82 131 L 488.32 130.18 L 491.6 129.08 L 494.62 127.71 L 497.34 126.07 L 499.72 124.18 L 501.75 122.06 L 503.39 119.75 L 504.67 117.27 L 505.58 114.63 L 506.14 111.86 L 506.4 108.93 L 506.41 107.86 L 506.41 107.86 L 506.29 105.3 L 505.89 102.78 L 505.19 100.26 L 504.17 97.77 L 502.83 95.35 L 501.2 93.07 L 499.33 90.97 L 497.26 89.08 L 495.01 87.41 L 492.58 85.92 L 492.54 85.89 L 516.36 50.28 L 491.31 50.28 L 473.98 80.03 Z M 468.39 96.63 L 472.53 96.63 L 472.53 96.63 L 474.56 96.72 L 476.45 97.02 L 478.19 97.54 L 479.76 98.31 L 481.12 99.3 L 482.24 100.52 L 483.09 101.92 L 483.67 103.46 L 484 105.14 L 484.09 106.86 L 484.09 106.86 L 483.98 108.39 L 483.63 109.81 L 483.01 111.11 L 482.11 112.28 L 480.93 113.28 L 479.5 114.09 L 477.87 114.68 L 476.07 115.07 L 474.12 115.27 L 472.76 115.31 L 468.39 115.31 Z" fill-rule="nonzero" stroke="rgb(255,255,255)" stroke-opacity="0"/>
                  </g>
                  <g id="GRID.polyline.469.1">
                    <polyline id="GRID.polyline.469.1.1" points="468.39,80.03 468.39,50.28 446.32,50.28 446.32,132.01 473.09,132.01 473.09,132.01 477.21,131.9 481.12,131.58 484.82,131 488.32,130.18 491.6,129.08 494.62,127.71 497.34,126.07 499.72,124.18 501.75,122.06 503.39,119.75 504.67,117.27 505.58,114.63 506.14,111.86 506.4,108.93 506.41,107.86 506.41,107.86 506.29,105.3 505.89,102.78 505.19,100.26 504.17,97.77 502.83,95.35 501.2,93.07 499.33,90.97 497.26,89.08 495.01,87.41 492.58,85.92 492.54,85.89 516.36,50.28 491.31,50.28 473.98,80.03 468.39,80.03" fill="none" fill-opacity="0"/>
                    <polyline id="GRID.polyline.469.1.2" points="468.39,96.63 472.53,96.63 472.53,96.63 474.56,96.72 476.45,97.02 478.19,97.54 479.76,98.31 481.12,99.3 482.24,100.52 483.09,101.92 483.67,103.46 484,105.14 484.09,106.86 484.09,106.86 483.98,108.39 483.63,109.81 483.01,111.11 482.11,112.28 480.93,113.28 479.5,114.09 477.87,114.68 476.07,115.07 474.12,115.27 472.76,115.31 468.39,115.31 468.39,96.63" fill="none" fill-opacity="0"/>
                  </g>
                </g>
                <g id="GRID.picComplexPath.430.1" stroke="rgb(255,255,255)" stroke-opacity="0">
                  <g id="GRID.pathgrob.470.1" fill="url(#greyscale.1)" fill-opacity="1">
                    <path id="GRID.pathgrob.470.1.1" d="M 592.87 92.88 L 592.87 92.88 L 592.77 89.27 L 592.46 85.71 L 591.92 82.17 L 591.12 78.66 L 590.09 75.24 L 588.82 72.01 L 587.35 69.03 L 585.73 66.34 L 583.97 63.95 L 582.07 61.82 L 581.59 61.35 L 581.59 61.35 L 579.48 59.45 L 577.14 57.69 L 574.5 56.06 L 571.57 54.58 L 568.37 53.29 L 564.99 52.21 L 561.49 51.38 L 557.95 50.79 L 554.4 50.43 L 550.82 50.28 L 549.93 50.28 L 523.49 50.28 L 523.49 132.01 L 551.78 132.01 L 551.78 132.01 L 555.33 131.92 L 558.83 131.63 L 562.32 131.12 L 565.77 130.38 L 569.12 129.41 L 572.28 128.22 L 575.18 126.86 L 577.78 125.35 L 580.08 123.72 L 582.14 121.96 L 582.15 121.94 L 582.15 121.94 L 584.06 119.97 L 585.83 117.75 L 587.45 115.23 L 588.92 112.41 L 590.18 109.33 L 591.21 106.06 L 591.99 102.68 L 592.51 99.27 L 592.8 95.83 L 592.87 92.88 Z M 569.94 92.09 L 569.94 92.09 L 569.87 94.83 L 569.62 97.51 L 569.19 100.13 L 568.57 102.61 L 567.78 104.82 L 566.88 106.71 L 565.87 108.27 L 565.49 108.75 L 565.49 108.75 L 564.17 110.14 L 562.57 111.37 L 560.65 112.44 L 558.47 113.27 L 556.16 113.83 L 553.8 114.12 L 551.99 114.18 L 545.56 114.18 L 545.56 68.4 L 550.49 68.4 L 550.49 68.4 L 553.04 68.51 L 555.53 68.86 L 557.95 69.48 L 560.2 70.36 L 562.18 71.46 L 563.83 72.73 L 565.19 74.15 L 565.24 74.22 L 565.24 74.22 L 566.31 75.75 L 567.28 77.57 L 568.14 79.72 L 568.85 82.17 L 569.39 84.82 L 569.74 87.57 L 569.92 90.37 L 569.94 92.09 Z" fill-rule="nonzero" stroke="rgb(255,255,255)" stroke-opacity="0"/>
                  </g>
                  <g id="GRID.polyline.471.1">
                    <polyline id="GRID.polyline.471.1.1" points="592.87,92.88 592.87,92.88 592.77,89.27 592.46,85.71 591.92,82.17 591.12,78.66 590.09,75.24 588.82,72.01 587.35,69.03 585.73,66.34 583.97,63.95 582.07,61.82 581.59,61.35 581.59,61.35 579.48,59.45 577.14,57.69 574.5,56.06 571.57,54.58 568.37,53.29 564.99,52.21 561.49,51.38 557.95,50.79 554.4,50.43 550.82,50.28 549.93,50.28 523.49,50.28 523.49,132.01 551.78,132.01 551.78,132.01 555.33,131.92 558.83,131.63 562.32,131.12 565.77,130.38 569.12,129.41 572.28,128.22 575.18,126.86 577.78,125.35 580.08,123.72 582.14,121.96 582.15,121.94 582.15,121.94 584.06,119.97 585.83,117.75 587.45,115.23 588.92,112.41 590.18,109.33 591.21,106.06 591.99,102.68 592.51,99.27 592.8,95.83 592.87,92.88 592.87,92.88" fill="none" fill-opacity="0"/>
                    <polyline id="GRID.polyline.471.1.2" points="569.94,92.09 569.94,92.09 569.87,94.83 569.62,97.51 569.19,100.13 568.57,102.61 567.78,104.82 566.88,106.71 565.87,108.27 565.49,108.75 565.49,108.75 564.17,110.14 562.57,111.37 560.65,112.44 558.47,113.27 556.16,113.83 553.8,114.12 551.99,114.18 545.56,114.18 545.56,68.4 550.49,68.4 550.49,68.4 553.04,68.51 555.53,68.86 557.95,69.48 560.2,70.36 562.18,71.46 563.83,72.73 565.19,74.15 565.24,74.22 565.24,74.22 566.31,75.75 567.28,77.57 568.14,79.72 568.85,82.17 569.39,84.82 569.74,87.57 569.92,90.37 569.94,92.09 569.94,92.09" fill="none" fill-opacity="0"/>
                  </g>
                </g>
                <g id="GRID.picComplexPath.433.1" stroke="rgb(255,255,255)" stroke-opacity="0">
                  <g id="GRID.pathgrob.472.1" fill="url(#greyscale.1)" fill-opacity="1">
                    <path id="GRID.pathgrob.472.1.1" d="M 660.62 75.1 L 660.62 75.1 L 660.54 73 L 660.28 70.84 L 659.81 68.63 L 659.15 66.46 L 658.34 64.45 L 657.4 62.64 L 656.76 61.6 L 656.76 61.6 L 655.62 60.02 L 654.25 58.46 L 652.65 56.92 L 650.85 55.47 L 648.95 54.19 L 647.03 53.1 L 645.63 52.42 L 645.63 52.42 L 643.75 51.66 L 641.68 50.97 L 639.39 50.36 L 636.92 49.86 L 634.4 49.49 L 631.91 49.26 L 629.48 49.16 L 628.59 49.16 L 628.59 49.16 L 626.33 49.18 L 624.04 49.26 L 621.74 49.4 L 619.53 49.6 L 617.53 49.85 L 615.77 50.13 L 614.88 50.3 L 614.88 50.3 L 613.2 50.69 L 611.37 51.19 L 609.41 51.83 L 607.41 52.56 L 605.49 53.35 L 603.69 54.17 L 603.38 54.31 L 603.38 73.99 L 603.38 73.99 L 605.16 73.11 L 607.08 72.24 L 609.15 71.38 L 611.27 70.57 L 613.35 69.86 L 615.3 69.25 L 616.5 68.92 L 616.5 68.92 L 618.5 68.42 L 620.57 67.99 L 622.72 67.62 L 624.83 67.35 L 626.78 67.18 L 628.54 67.11 L 629.03 67.11 L 629.03 67.11 L 630.78 67.17 L 632.47 67.38 L 634.02 67.75 L 635.28 68.24 L 636.24 68.81 L 636.24 68.81 L 637.02 69.49 L 637.67 70.31 L 638.16 71.25 L 638.45 72.23 L 638.53 73.2 L 638.53 73.2 L 638.5 73.82 L 638.38 74.46 L 638.19 75.08 L 637.93 75.65 L 637.62 76.14 L 637.62 76.14 L 637.23 76.61 L 636.71 77.12 L 636.07 77.67 L 635.37 78.19 L 634.64 78.67 L 634.64 78.67 L 633.85 79.13 L 632.64 79.77 L 630.98 80.59 L 628.94 81.57 L 626.64 82.64 L 624.16 83.77 L 623.78 83.94 L 623.78 83.94 L 621.61 84.96 L 619.49 86.03 L 617.42 87.17 L 615.51 88.31 L 613.85 89.4 L 612.48 90.4 L 611.78 90.97 L 611.78 90.97 L 610.5 92.15 L 609.24 93.5 L 608.06 94.99 L 607.04 96.52 L 606.22 98 L 605.85 98.79 L 605.85 98.79 L 605.29 100.27 L 604.79 101.96 L 604.39 103.86 L 604.12 105.84 L 603.97 107.79 L 603.94 109.25 L 603.94 109.25 L 604.04 111.57 L 604.35 113.86 L 604.89 116.14 L 605.68 118.39 L 606.71 120.53 L 607.93 122.49 L 609.32 124.24 L 610.84 125.77 L 612.16 126.87 L 612.16 126.87 L 614.01 128.16 L 616.11 129.33 L 618.5 130.4 L 621.17 131.32 L 624.04 132.08 L 627.01 132.64 L 630.01 133 L 633.02 133.17 L 634.75 133.2 L 634.75 133.2 L 637.33 133.13 L 640.02 132.93 L 642.88 132.56 L 645.87 132.03 L 648.92 131.35 L 651.94 130.52 L 654.86 129.59 L 657.65 128.56 L 660.32 127.44 L 660.62 127.31 L 653.86 110.27 L 653.86 110.27 L 651.25 111.41 L 648.61 112.44 L 645.91 113.37 L 643.22 114.15 L 640.62 114.77 L 638.22 115.2 L 636.05 115.44 L 634.07 115.52 L 634.06 115.52 L 634.06 115.52 L 632.53 115.46 L 631.06 115.27 L 629.72 114.94 L 628.62 114.51 L 627.8 114 L 627.8 114 L 627.14 113.41 L 626.58 112.7 L 626.16 111.9 L 625.92 111.08 L 625.84 110.27 L 625.84 110.27 L 625.94 109.38 L 626.24 108.46 L 626.77 107.53 L 627.48 106.68 L 628.32 105.95 L 628.32 105.95 L 629.16 105.37 L 630.41 104.63 L 632.12 103.71 L 634.25 102.63 L 636.68 101.44 L 639.32 100.2 L 641.84 99.04 L 641.84 99.04 L 644.35 97.85 L 646.78 96.56 L 649.11 95.17 L 651.27 93.71 L 653.17 92.24 L 654.74 90.82 L 656 89.46 L 656.51 88.83 L 656.51 88.83 L 657.56 87.25 L 658.51 85.45 L 659.32 83.4 L 659.95 81.18 L 660.37 78.91 L 660.58 76.66 L 660.62 75.1 Z" fill-rule="nonzero" stroke="rgb(255,255,255)" stroke-opacity="0"/>
                  </g>
                  <g id="GRID.polyline.473.1">
                    <polyline id="GRID.polyline.473.1.1" points="660.62,75.1 660.62,75.1 660.54,73 660.28,70.84 659.81,68.63 659.15,66.46 658.34,64.45 657.4,62.64 656.76,61.6 656.76,61.6 655.62,60.02 654.25,58.46 652.65,56.92 650.85,55.47 648.95,54.19 647.03,53.1 645.63,52.42 645.63,52.42 643.75,51.66 641.68,50.97 639.39,50.36 636.92,49.86 634.4,49.49 631.91,49.26 629.48,49.16 628.59,49.16 628.59,49.16 626.33,49.18 624.04,49.26 621.74,49.4 619.53,49.6 617.53,49.85 615.77,50.13 614.88,50.3 614.88,50.3 613.2,50.69 611.37,51.19 609.41,51.83 607.41,52.56 605.49,53.35 603.69,54.17 603.38,54.31 603.38,73.99 603.38,73.99 605.16,73.11 607.08,72.24 609.15,71.38 611.27,70.57 613.35,69.86 615.3,69.25 616.5,68.92 616.5,68.92 618.5,68.42 620.57,67.99 622.72,67.62 624.83,67.35 626.78,67.18 628.54,67.11 629.03,67.11 629.03,67.11 630.78,67.17 632.47,67.38 634.02,67.75 635.28,68.24 636.24,68.81 636.24,68.81 637.02,69.49 637.67,70.31 638.16,71.25 638.45,72.23 638.53,73.2 638.53,73.2 638.5,73.82 638.38,74.46 638.19,75.08 637.93,75.65 637.62,76.14 637.62,76.14 637.23,76.61 636.71,77.12 636.07,77.67 635.37,78.19 634.64,78.67 634.64,78.67 633.85,79.13 632.64,79.77 630.98,80.59 628.94,81.57 626.64,82.64 624.16,83.77 623.78,83.94 623.78,83.94 621.61,84.96 619.49,86.03 617.42,87.17 615.51,88.31 613.85,89.4 612.48,90.4 611.78,90.97 611.78,90.97 610.5,92.15 609.24,93.5 608.06,94.99 607.04,96.52 606.22,98 605.85,98.79 605.85,98.79 605.29,100.27 604.79,101.96 604.39,103.86 604.12,105.84 603.97,107.79 603.94,109.25 603.94,109.25 604.04,111.57 604.35,113.86 604.89,116.14 605.68,118.39 606.71,120.53 607.93,122.49 609.32,124.24 610.84,125.77 612.16,126.87 612.16,126.87 614.01,128.16 616.11,129.33 618.5,130.4 621.17,131.32 624.04,132.08 627.01,132.64 630.01,133 633.02,133.17 634.75,133.2 634.75,133.2 637.33,133.13 640.02,132.93 642.88,132.56 645.87,132.03 648.92,131.35 651.94,130.52 654.86,129.59 657.65,128.56 660.32,127.44 660.62,127.31 653.86,110.27 653.86,110.27 651.25,111.41 648.61,112.44 645.91,113.37 643.22,114.15 640.62,114.77 638.22,115.2 636.05,115.44 634.07,115.52 634.06,115.52 634.06,115.52 632.53,115.46 631.06,115.27 629.72,114.94 628.62,114.51 627.8,114 627.8,114 627.14,113.41 626.58,112.7 626.16,111.9 625.92,111.08 625.84,110.27 625.84,110.27 625.94,109.38 626.24,108.46 626.77,107.53 627.48,106.68 628.32,105.95 628.32,105.95 629.16,105.37 630.41,104.63 632.12,103.71 634.25,102.63 636.68,101.44 639.32,100.2 641.84,99.04 641.84,99.04 644.35,97.85 646.78,96.56 649.11,95.17 651.27,93.71 653.17,92.24 654.74,90.82 656,89.46 656.51,88.83 656.51,88.83 657.56,87.25 658.51,85.45 659.32,83.4 659.95,81.18 660.37,78.91 660.58,76.66 660.62,75.1 660.62,75.1" fill="none" fill-opacity="0"/>
                  </g>
                </g>
              </g>
            </g>
          </g>
        </g>
      </g>
    </g>
  </g>
</svg>